<mxfile host="app.diagrams.net" modified="2024-02-12T17:43:08.585Z" agent="Mozilla/5.0 (X11; Linux x86_64) AppleWebKit/537.36 (KHTML, like Gecko) Chrome/121.0.0.0 Safari/537.36" etag="4s7StFFnQeDPwbNAc6Cb" version="23.1.2" type="github">
  <diagram name="Pagina-1" id="Ce5rzUPetxSmcJawCmoA">
    <mxGraphModel dx="875" dy="453" grid="1" gridSize="10" guides="1" tooltips="1" connect="1" arrows="1" fold="1" page="1" pageScale="1" pageWidth="827" pageHeight="1169" math="0" shadow="0">
      <root>
        <mxCell id="0" />
        <mxCell id="1" parent="0" />
        <mxCell id="r_Dj4uReKLwVwEFs2foP-1" value="" style="edgeStyle=orthogonalEdgeStyle;rounded=0;orthogonalLoop=1;jettySize=auto;html=1;" edge="1" parent="1" source="r_Dj4uReKLwVwEFs2foP-2" target="r_Dj4uReKLwVwEFs2foP-16">
          <mxGeometry relative="1" as="geometry" />
        </mxCell>
        <mxCell id="r_Dj4uReKLwVwEFs2foP-2" value="CNN" style="shape=trapezoid;perimeter=trapezoidPerimeter;fixedSize=1;rotation=90;fillColor=#dae8fc;strokeColor=#6c8ebf;align=center;fontColor=default;labelBackgroundColor=none;whiteSpace=wrap;html=1;spacingLeft=0;direction=east;" vertex="1" parent="1">
          <mxGeometry x="100" y="180" width="120" height="60" as="geometry" />
        </mxCell>
        <mxCell id="r_Dj4uReKLwVwEFs2foP-4" value="" style="edgeStyle=orthogonalEdgeStyle;rounded=0;orthogonalLoop=1;jettySize=auto;html=1;" edge="1" parent="1" source="r_Dj4uReKLwVwEFs2foP-5" target="r_Dj4uReKLwVwEFs2foP-2">
          <mxGeometry relative="1" as="geometry" />
        </mxCell>
        <mxCell id="r_Dj4uReKLwVwEFs2foP-5" value="Image&lt;br&gt;" style="ellipse;whiteSpace=wrap;html=1;aspect=fixed;fillColor=#d5e8d4;strokeColor=#82b366;" vertex="1" parent="1">
          <mxGeometry x="40" y="180" width="60" height="60" as="geometry" />
        </mxCell>
        <mxCell id="r_Dj4uReKLwVwEFs2foP-6" value="" style="shape=image;verticalLabelPosition=bottom;labelBackgroundColor=default;verticalAlign=top;aspect=fixed;imageAspect=0;image=data:image/jpeg,/9j/4AAQSkZJRgABAQAAAQABAAD/2wBDAAgGBgcGBQgHBwcJCQgKDBQNDAsLDBkSEw8UHRofHh0aHBwgJC4nICIsIxwcKDcpLDAxNDQ0Hyc5PTgyPC4zNDL/2wBDAQkJCQwLDBgNDRgyIRwhMjIyMjIyMjIyMjIyMjIyMjIyMjIyMjIyMjIyMjIyMjIyMjIyMjIyMjIyMjIyMjIyMjL/wAARCAL6AqADASIAAhEBAxEB/8QAHwAAAQUBAQEBAQEAAAAAAAAAAAECAwQFBgcICQoL/8QAtRAAAgEDAwIEAwUFBAQAAAF9AQIDAAQRBRIhMUEGE1FhByJxFDKBkaEII0KxwRVS0fAkM2JyggkKFhcYGRolJicoKSo0NTY3ODk6Q0RFRkdISUpTVFVWV1hZWmNkZWZnaGlqc3R1dnd4eXqDhIWGh4iJipKTlJWWl5iZmqKjpKWmp6ipqrKztLW2t7i5usLDxMXGx8jJytLT1NXW19jZ2uHi4+Tl5ufo6erx8vP09fb3+Pn6/8QAHwEAAwEBAQEBAQEBAQAAAAAAAAECAwQFBgcICQoL/8QAtREAAgECBAQDBAcFBAQAAQJ3AAECAxEEBSExBhJBUQdhcRMiMoEIFEKRobHBCSMzUvAVYnLRChYkNOEl8RcYGRomJygpKjU2Nzg5OkNERUZHSElKU1RVVldYWVpjZGVmZ2hpanN0dXZ3eHl6goOEhYaHiImKkpOUlZaXmJmaoqOkpaanqKmqsrO0tba3uLm6wsPExcbHyMnK0tPU1dbX2Nna4uPk5ebn6Onq8vP09fb3+Pn6/9oADAMBAAIRAxEAPwDw2iiigAooooAKpv8A6xvqauVTf/WN9TQA2iiigAooooAKKKKACiiigAooooAKKKKACiiigAoop8MZmmSMdWOKAGUV20Pw5vZoUkEowwz1FSf8K1vv+eo/MUAcLRXdf8K1vv8AnqPzFH/Ctb7/AJ6j8xQBwtFd1/wrW+/56j8xWTrvhG50O1E8rhgaAOboord0Dw1Pr2/yXC7aAMKiu6/4Vrff89R+Yo/4Vrff89R+YoA4Wiu6/wCFa33/AD1H5ij/AIVrff8APUfmKAOForuT8Nr4KT5o49xXHXtq1ldyW7HJQ4oAr0U+GMzTJGOrHFdnD8Ob2aFJBKMMM9RQBxNFd1/wrW+/56j8xR/wrW+/56j8xQBwtFd1/wAK1vv+eo/MUf8ACtb7/nqPzFAHC0V0mu+EbnQ7UTyuGBrm6ACiiigAooooAKKKKACiinwxmaZIx1Y4oAZRXbQ/Dm9mhSQSjDDPUVJ/wrW+/wCeo/MUAcLRXdf8K1vv+eo/MUf8K1vv+eo/MUAcLRXdf8K1vv8AnqPzFZOu+EbnQ7UTyuGBoA5uiiigAooooAKKKKACiiigAooooAKKsWVq17dx26nBc4rsR8Nr4qD5o59xQBw1FdXq3ge60qxa5kkBVe3FcpQAUUUUAFFFFABRRRQAUUUUAXE/1a/QU6mp/q1+gp1ABRRRQAUUUUAFFFFABVN/9Y31NXKpv/rG+poAbRRRQAUUUUAFFFFABRRRQAUUUUAFFFFABRRRQAVYsP8Aj/g/3xVerFh/x/wf74oA9+sP+PCD/cFJf3YsrKS4IyEGcUth/wAeEH+4Kp+If+QHc/7tAHJN8TIgxH2fofQ1oaN46j1bUFtVh2lu+K8kf/WN9TXQ+CP+RiioA9rriviP/wAgdPrXa1xXxH/5A6fWgDyavR/hl/y8V5xXo/wy/wCXigD0euW8Q+ME0K7EDRb8966mvJviP/yGE+lAGv8A8LNi/wCfb9DXZaNqY1bT0ulXaG7V4DXtXgj/AJF2KgDon/1bfQ14N4h/5Dlz/vV7y/8Aq2+hrwbxD/yHLn/eoAqWH/H/AAf74r36w/48IP8AcFeA2H/H/B/vivfrD/jwg/3BQAl/diyspLgjIQZxXDt8TIgxH2fofQ11viH/AJAdz/u14O/+sb6mgD1vRvHUeragtqsO0t3xXY14p4I/5GKKva6AOK+I/wDyB0+teTV6z8R/+QOn1ryagAooooAKKKKACiiigAqS3l8m4jkxnawNR0UAekW/xJiht44/s+dqgdDUn/CzYv8An2/Q15nVrTrQXt/Fbk43nGaAPQv+Fmxf8+36GtHRvHUeragtqsO0t3xWYvwzjKg/aOo9TWlovgVNJ1BboTbivbNAHZVxXxH/AOQOn1rta4r4j/8AIHT60AeTUUUUAFFFFABRRRQAUUUUAFFFFAGn4e/5Dlt/vV7yn+rX6CvBvD3/ACHLb/er3lP9Wv0FAHO+N/8AkXZa8Vr2rxv/AMi7LXitABRRRQAUUUUAFFFFABRRRQBcT/Vr9BTqan+rX6CnUAFFFFABRRRQAUUUUAFU3/1jfU1cqm/+sb6mgBtFFFABRRRQAUUUUAFFFFABRRRQAUUUUAFFFFABViw/4/4P98VXqxYf8f8AB/vigD36w/48IP8AcFU/EP8AyA7n/dq5Yf8AHhB/uClu7ZLy1eB/uuMGgD56f/WN9TXQ+CP+Riiruj8O9LJJyefarmmeDLDS7xbmEnevtQB0tcV8R/8AkDp9a7WuK+I//IHT60AeTV6P8Mv+XivOK9H+GX/LxQB6PXk3xH/5DCfSvWawNZ8KWWtXAmuCdw9qAPEK9q8Ef8i7FVL/AIV1pfqfyrpdM06LS7NbaH7i0AWn/wBW30NeDeIf+Q5c/wC9XvL/AOrb6GvBvEP/ACHLn/eoAqWH/H/B/vivfrD/AI8IP9wV4DYf8f8AB/vivfrD/jwg/wBwUAU/EP8AyA7n/drwd/8AWN9TX0Ld2yXlq8D/AHXGDXKn4d6WSTk8+1AHC+CP+Riir2uua0zwZYaXeLcwk719q6WgDiviP/yB0+teTV6z8R/+QOn1ryagAooooAKKKKACiiigAooqW1jEt1FG3RmANAEVWLG6ayu47hRkoc16fa/D7TJbWKRicsoJ4qb/AIV1pfqfyoA5wfEq9CgeSOB6CtXw/wCOLrVtUS1kjAVu/FXv+FdaX6n8quaZ4MsNLvFuYSd6+1AHS1xXxH/5A6fWu1riviP/AMgdPrQB5NRRRQAUUUUAFFFFABRRRQAUUUUAafh7/kOW3+9XvKf6tfoK8G8Pf8hy2/3q95T/AFa/QUAc743/AORdlrxWvavG/wDyLsteK0AFFFFABRRRQAUUUUAFFFFAFxP9Wv0FOpqf6tfoKdQAUUUUAFFFFABRRRQAVTf/AFjfU1cr1TSfCelXOjWM8kGXkt43Y+pKgmgDx2ivbv8AhDdH/wCfej/hDdH/AOfegDxGivbv+EN0f/n3o/4Q3R/+fegDxGivbv8AhDdH/wCfej/hDdH/AOfegDxGivbv+EN0f/n3o/4Q3R/+fegDxGivbv8AhDdH/wCfej/hDdH/AOfegDxGivbv+EN0f/n3o/4Q3R/+fegDxGivbv8AhDdH/wCfej/hDdH/AOfegDxGnRyGKRZF6qcivbP+EN0f/n3o/wCEN0f/AJ96APOI/HWrxRrGsnCjA5p3/Ce6x/z0/WvRf+EN0f8A596P+EN0f/n3oA86/wCE91j/AJ6frR/wnusf89P1r0X/AIQ3R/8An3o/4Q3R/wDn3oA86/4T3WP+en61Q1XxNf6vAIbl8qPevVP+EN0f/n3o/wCEN0f/AJ96APEa1NJ1+80bd9lbG7rzXrX/AAhuj/8APvR/whuj/wDPvQB51/wnusf89P1o/wCE91j/AJ6frXov/CG6P/z70f8ACG6P/wA+9AHnX/Ce6x/z0/Wj/hPdY/56frXov/CG6P8A8+9H/CG6P/z70Aecnx7rBBHmdfeudurh7u4eaQ5djk17R/whuj/8+9H/AAhuj/8APvQB4nHIYpFkXqpyK6WPx1q8UaxrJwowOa9H/wCEN0f/AJ96P+EN0f8A596APOv+E91j/np+tH/Ce6x/z0/WvRf+EN0f/n3o/wCEN0f/AJ96APOv+E91j/np+tH/AAnusf8APT9a9F/4Q3R/+fej/hDdH/596APK9V8TX+rwCG5fKj3rFr27/hDdH/596P8AhDdH/wCfegDxGivbv+EN0f8A596P+EN0f/n3oA8Ror27/hDdH/596P8AhDdH/wCfegDxGivbv+EN0f8A596P+EN0f/n3oA8Rp0chikWReqnIr2z/AIQ3R/8An3o/4Q3R/wDn3oA84j8davFGsaycKMDmnf8ACe6x/wA9P1r0X/hDdH/596P+EN0f/n3oA86/4T3WP+en60f8J7rH/PT9a9F/4Q3R/wDn3o/4Q3R/+fegDzr/AIT3WP8Anp+tUNV8TX+rwCG5fKj3r1T/AIQ3R/8An3o/4Q3R/wDn3oA8Ror27/hDdH/596P+EN0f/n3oA8Ror27/AIQ3R/8An3o/4Q3R/wDn3oA8Ror27/hDdH/596P+EN0f/n3oA8Ror27/AIQ3R/8An3o/4Q3R/wDn3oA8Ror27/hDdH/596P+EN0f/n3oA8Xtbh7S4SaM4dTkV0Q8e6wAB5nT3r0b/hDdH/596P8AhDdH/wCfegDzDUPF2palatbzvlD15rAr27/hDdH/AOfej/hDdH/596APEaK9u/4Q3R/+fej/AIQ3R/8An3oA8Ror27/hDdH/AOfej/hDdH/596APEaK9u/4Q3R/+fej/AIQ3R/8An3oA8Ror27/hDdH/AOfej/hDdH/596APHU/1a/QU6rmrQpbazfQRjCR3EiKPQBiBVOgAooooAKKKKACiiigAr3DQf+Re0z/r0i/9AFeH17hoP/IvaZ/16Rf+gCgDQooooAKKKKACiiigAooooAKKKKACiiigAooooAKKKKACiiigAooooAKKKKACiiigAooooAKKKKACiiigAooooAKKKKACiiigAooooAKKKKACiiigAooooAKKKKACiiigAooooAKKKKACiiigAooooAKKKKACiiigAooooAKKKKACiiigAooooAKKKKACiiigAooooA8P17/kYdT/AOvuX/0M1n1oa9/yMOp/9fcv/oZrPoAKKKKACiiigAooooAK9w0H/kXtM/69Iv8A0AV4fXuGg/8AIvaZ/wBekX/oAoA0KKKKACiiigAooooAKKKKACiiigAooooAKKKKACiiigAooooAKKKKACiiigAooooAKKKKACiiigAooooAKKKKACiiigAooooAKKKKACiiigAooooAKKKKACiiigAooooAKKKKACiiigAooooAKKKKACiiigAooooAKKKKACiiigAooooAKKKKACiiigAooooAKKKKAPD9e/5GHU/+vuX/ANDNZ9aGvf8AIw6n/wBfcv8A6Gaz6ACiiigAooooAKKKKACvcNB/5F7TP+vSL/0AV4fXuGg/8i9pn/XpF/6AKANCiiigAooooAKKKKACiiigAooooAKKKKACiiigAooooAKKKKACiiigAooooAKKKKACiiigAooooAKKKKACiiigAooooAKKKKACiiigAooooAKKKKACiiigAooooAKKKKACiiigAooooAKKKKACiiigAooooAKKKKACiiigAooooAKKKKACiiigAooooAKKKKACiiigDw/Xv+Rh1P8A6+5f/QzWfWhr3/Iw6n/19y/+hms+gAooooAKKKKACiiigAr3DQf+Re0z/r0i/wDQBXh9e4aD/wAi9pn/AF6Rf+gCgDQooooAo6xcPa6XPNGcOoyK8lbxxrAdh5vf1r1TxD/yA7n/AHa8Hf8A1jfU0AdH/wAJzrH/AD2/Wj/hOdY/57frXNUUAdL/AMJzrH/Pb9aP+E51j/nt+tc1RQB0v/Cc6x/z2/Wj/hOdY/57frXNUUAdL/wnOsf89v1o/wCE51j/AJ7frXNUUAdL/wAJzrH/AD2/Wj/hOdY/57frXNUUAdL/AMJzrH/Pb9aP+E51j/nt+tc1RQB0v/Cc6x/z2/Wj/hOdY/57frXNUUAdL/wnOsf89v1o/wCE51j/AJ7frXNUUAdL/wAJzrH/AD2/Wj/hOdY/57frXNUUAdL/AMJzrH/Pb9aP+E51j/nt+tc1RQB0v/Cc6x/z2/Wj/hOdY/57frXNUUAdL/wnOsf89v1o/wCE51j/AJ7frXNUUAdL/wAJzrH/AD2/Wj/hOdY/57frXNUUAdL/AMJzrH/Pb9aP+E51j/nt+tc1RQB0v/Cc6x/z2/Wj/hOdY/57frXNUUAdL/wnOsf89v1o/wCE51j/AJ7frXNUUAdL/wAJzrH/AD2/Wj/hOdY/57frXNUUAdL/AMJzrH/Pb9aP+E51j/nt+tc1RQB0v/Cc6x/z2/Wj/hOdY/57frXNUUAdL/wnOsf89v1o/wCE51j/AJ7frXNUUAdL/wAJzrH/AD2/Wj/hOdY/57frXNUUAdL/AMJzrH/Pb9aP+E51j/nt+tc1RQB0v/Cc6x/z2/Wj/hOdY/57frXNUUAdL/wnOsf89v1o/wCE51j/AJ7frXNUUAdL/wAJzrH/AD2/Wj/hOdY/57frXNUUAdL/AMJzrH/Pb9aP+E51j/nt+tc1RQB0v/Cc6x/z2/Wj/hOdY/57frXNUUAdL/wnOsf89v1o/wCE51j/AJ7frXNUUAdL/wAJzrH/AD2/Wj/hOdY/57frXNUUAdL/AMJzrH/Pb9aP+E51j/nt+tc1RQB0v/Cc6x/z2/Wj/hOdY/57frXNUUAdL/wnOsf89v1o/wCE51j/AJ7frXNUUAdL/wAJzrH/AD2/Wj/hOdY/57frXNUUAez+CtVudV01pbltzA109cV8OP8AkDv9a7WgAooooA8P17/kYdT/AOvuX/0M1n1oa9/yMOp/9fcv/oZrPoAKKKKACiiigAooooAK9w0H/kXtM/69Iv8A0AV4fXuGg/8AIvaZ/wBekX/oAoA0KKKKAMvxD/yA7n/drwd/9Y31Ne8eIf8AkB3P+7Xg7/6xvqaAG0UUUAFFFFABRRRQAUUUUAFFFFABRRRQAUUUUAFFFFABRRRQAUUUUAFFFFABRRRQAUUUUAFFFFABRRRQAUUUUAFFFFABRRRQAUUUUAFFFFABRRRQAUUUUAFFFFABRRRQAUUUUAFFFFABRRRQAUUUUAFFFFABRRRQAUUUUAFFFFABRRRQB6z8OP8AkDv9a7WuK+HH/IHf612tABRRRQB4fr3/ACMOp/8AX3L/AOhms+tDXv8AkYdT/wCvuX/0M1n0AFFFFABRRRQAUUUUAFe4aD/yL2mf9ekX/oArw+vcNB/5F7TP+vSL/wBAFAGhRRRQBl+If+QHc/7teDv/AKxvqa948Q/8gO5/3a8Hf/WN9TQA2iiigAooooAKKKKACiiigAooooAKKKKACiiigAooooAKKKKACiiigAooooAKKKKACiiigAooooAKKKKACiiigAooooAKKKKACiiigAooooAKKKKACiiigAooooAKKKKACiiigAooooAKKKKACiiigAooooAKKKKACiiigAooooAKKKKAPWfhx/yB3+tdrXFfDj/kDv8AWu1oAKKKKAPD9e/5GHU/+vuX/wBDNZ9aGvf8jDqf/X3L/wChms+gAooooAKKKKACiiigAr3DQf8AkXtM/wCvSL/0AV4fXuGg/wDIvaZ/16Rf+gCgDQooooAy/EP/ACA7n/drwd/9Y31Ne8eIf+QHc/7teDv/AKxvqaAG0UUUAFFFFABRRRQAUUUUAFFFFABRRRQAUUUUAFFFFABRRRQAUUUUAFFFFABRRRQAUUUUAFFFFABRRRQAUUUUAFFFFABRRRQAUUUUAFFFFABRRRQAUUUUAFFFFABRRRQAUUUUAFFFFABRRRQAUUUUAFFFFABRRRQAUUUUAFFFFABRRRQB6z8OP+QO/wBa7WuK+HH/ACB3+tdrQAUUUUAeH69/yMOp/wDX3L/6Gaz60Ne/5GHU/wDr7l/9DNZ9ABRRRQAUUUUAFFFFABXuGg/8i9pn/XpF/wCgCvD69w0H/kXtM/69Iv8A0AUAaFFFFAGX4h/5Adz/ALteDv8A6xvqa948Q/8AIDuf92vB3/1jfU0ANooooAKKKKACiiigAooooAKKKKACiiigAooooAKKKKACiiigAooooAKKKKACiiigAooooAKKKKACiiigAooooAKKKKACiiigAooooAKKKKACiiigAooooAKKKKACiiigAooooAKKKKACiiigAooooAKKKKACiiigAooooAKKKKACiiigD1n4cf8AIHf612tcV8OP+QO/1rtaACiiigDw/Xv+Rh1P/r7l/wDQzWfWhr3/ACMOp/8AX3L/AOhms+gAooooAKKKKACiiigAr3DQf+Re0z/r0i/9AFeH17hoP/IvaZ/16Rf+gCgDQooooAy/EP8AyA7n/drwd/8AWN9TXvOvqW0W5CjJK9K8NeyufMb9w/U9qLjSb2K1FT/Yrn/ng/5UfYrn/ng/5UrofJLsQUVP9iuf+eD/AJUfYrn/AJ4P+VF0HJLsQUVP9iuf+eD/AJUfYrn/AJ4P+VF0HJLsQUVP9iuf+eD/AJUfYrn/AJ4P+VF0HJLsQUVP9iuf+eD/AJUfYrn/AJ4P+VF0HJLsQUVP9iuf+eD/AJUfYrn/AJ4P+VF0HJLsQUVP9iuf+eD/AJUfYrn/AJ4P+VF0HJLsQUVP9iuf+eD/AJUfYrn/AJ4P+VF0HJLsQUVP9iuf+eD/AJUfYrn/AJ4P+VF0HJLsQUVP9iuf+eD/AJUfYrn/AJ4P+VF0HJLsQUVP9iuf+eD/AJUfYrn/AJ4P+VF0HJLsQUVP9iuf+eD/AJUfYrn/AJ4P+VF0HJLsQUVP9iuf+eD/AJUfYrn/AJ4P+VF0HJLsQUVP9iuf+eD/AJUfYrn/AJ4P+VF0HJLsQUVP9iuf+eD/AJUfYrn/AJ4P+VF0HJLsQUVP9iuf+eD/AJUfYrn/AJ4P+VF0HJLsQUVP9iuf+eD/AJUfYrn/AJ4P+VF0HJLsQUVP9iuf+eD/AJUfYrn/AJ4P+VF0HJLsQUVP9iuf+eD/AJUfYrn/AJ4P+VF0HJLsQUVP9iuf+eD/AJUfYrn/AJ4P+VF0HJLsQUVP9iuf+eD/AJUfYrn/AJ4P+VF0HJLsQUVP9iuf+eD/AJUfYrn/AJ4P+VF0HJLsQUVP9iuf+eD/AJUfYrn/AJ4P+VF0HJLsQUVP9iuf+eD/AJUfYrn/AJ4P+VF0HJLsQUVP9iuf+eD/AJUfYrn/AJ4P+VF0HJLsQUVP9iuf+eD/AJUfYrn/AJ4P+VF0HJLsQUVP9iuf+eD/AJUfYrn/AJ4P+VF0HJLsQUVP9iuf+eD/AJUfYrn/AJ4P+VF0HJLsQUVP9iuf+eD/AJUfYrn/AJ4P+VF0HJLsQUVP9iuf+eD/AJUfYrn/AJ4P+VF0HJLsQUVP9iuf+eD/AJUfYrn/AJ4P+VF0HJLsQUVP9iuf+eD/AJUfYrn/AJ4P+VF0HJLsQUVP9iuf+eD/AJUfYrn/AJ4P+VF0HJLsepfDj/kDv9a7WuM+HcTxaQ4kQqc967OmTsFFFFAHh+vf8jDqf/X3L/6Gaz60Ne/5GHU/+vuX/wBDNZ9ABRRRQAUUUUAFFFFABXuGg/8AIvaZ/wBekX/oArw+vcNB/wCRe0z/AK9Iv/QBQBoUUUUARXIDQMCMjFc+bWDJ/cp/3zXQz/6lqwz1rkxG6PfydJwlch+ywf8APFP++aPssH/PFP8AvmpqK57s9jlXYh+ywf8APFP++aPssH/PFP8AvmpqKLsOVdiH7LB/zxT/AL5o+ywf88U/75qaii7DlXYh+ywf88U/75o+ywf88U/75qaii7DlXYh+ywf88U/75o+ywf8APFP++amoouw5V2IfssH/ADxT/vmj7LB/zxT/AL5qaii7DlXYh+ywf88U/wC+aPssH/PFP++amoouw5V2IfssH/PFP++aPssH/PFP++amoouw5V2IfssH/PFP++aPssH/ADxT/vmpqKLsOVdiH7LB/wA8U/75o+ywf88U/wC+amoouw5V2IfssH/PFP8Avmj7LB/zxT/vmpqKLsOVdiH7LB/zxT/vmj7LB/zxT/vmpqKLsOVdiH7LB/zxT/vmj7LB/wA8U/75qaii7DlXYh+ywf8APFP++aPssH/PFP8AvmpqKLsOVdiH7LB/zxT/AL5o+ywf88U/75qaii7DlXYh+ywf88U/75o+ywf88U/75qaii7DlXYh+ywf88U/75o+ywf8APFP++amoouw5V2IfssH/ADxT/vmj7LB/zxT/AL5qaii7DlXYh+ywf88U/wC+aPssH/PFP++amoouw5V2IfssH/PFP++aPssH/PFP++amoouw5V2IfssH/PFP++aPssH/ADxT/vmpqKLsOVdiH7LB/wA8U/75o+ywf88U/wC+amoouw5V2IfssH/PFP8Avmj7LB/zxT/vmpqKLsOVdiH7LB/zxT/vmj7LB/zxT/vmpqKLsOVdiH7LB/zxT/vmj7LB/wA8U/75qaii7DlXYh+ywf8APFP++aPssH/PFP8AvmpqKLsOVdiH7LB/zxT/AL5o+ywf88U/75qaii7DlXYh+ywf88U/75o+ywf88U/75qaii7DlXYh+ywf88U/75o+ywf8APFP++amoouw5V2IfssH/ADxT/vmj7LB/zxT/AL5qaii7DlXYh+ywf88U/wC+aPssH/PFP++amoouw5V2IfssH/PFP++aPssH/PFP++amoouw5V2IfssH/PFP++aPssH/ADxT/vmpqKLsOVdjS0yNI4SEUKPYVeqnp/8AqjVyu+l8CPksb/vEgooorQ5Tw/Xv+Rh1P/r7l/8AQzWfWhr3/Iw6n/19y/8AoZrPoAKKKKACiiigAooooAK9w0H/AJF7TP8Ar0i/9AFeH17hoP8AyL2mf9ekX/oAoA0KKKKAI5hmJgKxzC+elbT/AHTVSvPxlRxkrHt5VNxhIoeS/pR5L+lX6K4vbs9b2zKHkv6UeS/pV+ij27D2zKHkv6UeS/pV+ij27D2zKHkv6UeS/pV+ij27D2zKHkv6UeS/pV+ij27D2zKHkv6UeS/pV+ij27D2zKHkv6UeS/pV+ij27D2zKHkv6UeS/pV+ij27D2zKHkv6UeS/pV+ij27D2zKHkv6UeS/pV+ij27D2zKHkv6UeS/pV+ij27D2zKHkv6UeS/pV+ij27D2zKHkv6UeS/pV+ij27D2zKHkv6UeS/pV+ij27D2zKHkv6UeS/pV+ij27D2zKHkv6UeS/pV+ij27D2zKHkv6UeS/pV+ij27D2zKHkv6UeS/pV+ij27D2zKHkv6UeS/pV+ij27D2zKHkv6UeS/pV+ij27D2zKHkv6UeS/pV+ij27D2zKHkv6UeS/pV+ij27D2zKHkv6UeS/pV+ij27D2zKHkv6UeS/pV+ij27D2zKHkv6UeS/pV+ij27D2zKHkv6UeS/pV+ij27D2zKHkv6UeS/pV+ij27D2zKHkv6UeS/pV+ij27D2zKHkv6UeS/pV+ij27D2zKHkv6UeS/pV+ij27D2zKHkv6UeS/pV+ij27D2zKHkv6UeS/pV+ij27D2zKHkv6UeS/pV+ij27D2zHWKlYiDVuooPu1LXsUHemmfL4x3ryYUUUVqcx4fr3/ACMOp/8AX3L/AOhms+tDXv8AkYdT/wCvuX/0M1n0AFFFFABRRRQAUUUUAFe4aD/yL2mf9ekX/oArw+vcNB/5F7TP+vSL/wBAFAGhRRRQA1/umqlW3+6aq4ryswdpI9fLZJRdxKKXFGK8/mR6XPHuJRS4oxRzIOePcSilxRijmQc8e4lFLijFHMg549xKKXFGKOZBzx7iUUuKMUcyDnj3EopcUYo5kHPHuJRS4oxRzIOePcSilxRijmQc8e4lFLijFHMg549xKKXFGKOZBzx7iUUuKMUcyDnj3EopcUYo5kHPHuJRS4oxRzIOePcSilxRijmQc8e4lFLijFHMg549xKKXFGKOZBzx7iUUuKMUcyDnj3EopcUYo5kHPHuJRS4oxRzIOePcSilxRijmQc8e4lFLijFHMg549xKKXFGKOZBzx7iUUuKMUcyDnj3EopcUYo5kHPHuJRS4oxRzIOePcSilxRijmQc8e4lFLijFHMg549xKKXFGKOZBzx7iUUuKMUcyDnj3EopcUYo5kHPHuJRS4oxRzIOePcSilxRijmQc8e5PB92paih+7Ute9hv4UT57FO9aQUUUVuc54fr3/Iw6n/19y/8AoZrPrQ17/kYdT/6+5f8A0M1n0AFFFFABRRRQAUUUUAFe4aD/AMi9pn/XpF/6AK8Pr3DQf+Re0z/r0i/9AFAGhRRRQAj/AHTVWrT/AHTVWvHzL40elgvhYUUUV5p2hRRRQAUUUUAFFFFABRRRQAUUUUAFFFFABRRRQAUUUUAFFFFABRRRQAUUUUAFFFFABRRRQAUUUUAFFFFABRRRQAUUUUAFFFFABRRRQAUUUUAFFFFABRRRQAUUUUAFFFFABRRRQAUUUUAFFFFABRRRQAUUUUAFFFFABRRRQAUUUUATw/dqSo4fu1JX0WF/gxPGxH8RhRRRXQYnh+vf8jDqf/X3L/6Gaz60Ne/5GHU/+vuX/wBDNZ9ABRRRQAUUUUAFFFFABXuGg/8AIvaZ/wBekX/oArw+vcNB/wCRe0z/AK9Iv/QBQBoUUUUAGN3FJ9mHrTh1qWvCzaTU42OijOUU7Mg+zD1o+zD1qeivJ55G3tp9yD7MPWj7MPWp6KOeQe2n3IPsw9aPsw9anoo55B7afcg+zD1o+zD1qeijnkHtp9yD7MPWj7MPWp6KOeQe2n3IPsw9aPsw9anoo55B7afcg+zD1o+zD1qeijnkHtp9yD7MPWj7MPWp6KOeQe2n3IPsw9aPsw9anoo55B7afcg+zD1o+zD1qeijnkHtp9yD7MPWj7MPWp6KOeQe2n3IPsw9aPsw9anoo55B7afcg+zD1o+zD1qeijnkHtp9yD7MPWj7MPWp6KOeQe2n3IPsw9aPsw9anoo55B7afcg+zD1o+zD1qeijnkHtp9yD7MPWj7MPWp6KOeQe2n3IPsw9aPsw9anoo55B7afcg+zD1o+zD1qeijnkHtp9yD7MPWj7MPWp6KOeQe2n3IPsw9aPsw9anoo55B7afcg+zD1o+zD1qeijnkHtp9yD7MPWj7MPWp6KOeQe2n3IPsw9aPsw9anoo55B7afcg+zD1o+zD1qeijnkHtp9yD7MPWj7MPWp6KOeQe2n3IPsw9aPsw9anoo55B7afcg+zD1o+zD1qeijnkHtp9yD7MPWj7MPWp6KOeQe2n3IPsw9aPsw9anoo55B7afcg+zD1o+zD1qeijnkHtp9yD7MPWj7MPWp6KOeQe2n3IPsw9aPsw9anoo55B7afchEfl8UU5+tNr6nBu9CJyTbcm2FFFFdRB4fr3/Iw6n/ANfcv/oZrPrQ17/kYdT/AOvuX/0M1n0AFFFFABRRRQAUUUUAFe4aD/yL2mf9ekX/AKAK8Pr3DQf+Re0z/r0i/wDQBQBoUUUUAKOtS1XclVJFVftMnrXj5lRlUlFozniY0dJGlRWb9pk9aPtMnrXmfVJkf2jT7GlRWb9pk9aPtMnrR9UmH9o0+xpUVm/aZPWj7TJ60fVJh/aNPsaVFZv2mT1o+0yetH1SYf2jT7GlRWb9pk9aPtMnrR9UmH9o0+xpUVm/aZPWj7TJ60fVJh/aNPsaVFZv2mT1o+0yetH1SYf2jT7GlRWb9pk9aPtMnrR9UmH9o0+xpUVm/aZPWj7TJ60fVJh/aNPsaVFZv2mT1o+0yetH1SYf2jT7GlRWb9pk9aPtMnrR9UmH9o0+xpUVm/aZPWj7TJ60fVJh/aNPsaVFZv2mT1o+0yetH1SYf2jT7GlRWb9pk9aPtMnrR9UmH9o0+xpUVm/aZPWj7TJ60fVJh/aNPsaVFZv2mT1o+0yetH1SYf2jT7GlRWb9pk9aPtMnrR9UmH9o0+xpUVm/aZPWj7TJ60fVJh/aNPsaVFZv2mT1o+0yetH1SYf2jT7GlRWb9pk9aPtMnrR9UmH9o0+xpUVm/aZPWj7TJ60fVJh/aNPsaVFZv2mT1o+0yetH1SYf2jT7GlRWb9pk9aPtMnrR9UmH9o0+xpUVm/aZPWj7TJ60fVJh/aNPsaVFZv2mT1o+0yetH1SYf2jT7GlRWb9pk9aPtMnrR9UmH9o0+xpUVm/aZPWj7TJ60fVJh/aNPsaVFZv2mT1o+0yetH1SYf2jT7GlRWb9pk9aPtMnrR9UmH9o0+xpUVm/aZPWj7TJ60fVJh/aNPsaVFZv2mT1o+0yetH1SYf2jT7GlRWb9pk9aPtMnrR9UmH9o0+xpUVm/aZPWj7TJ60fVJh/aNPsXn602ooZGkXLVLX0eFi40Ypm0Zqa5l1CiiiugZ4fr3/Iw6n/ANfcv/oZrPrQ17/kYdT/AOvuX/0M1n0AFFFFABRRRQAUUUUAFe4aD/yL2mf9ekX/AKAK8Pr3DQf+Re0z/r0i/wDQBQBoUUUUAMk/1ZqhV+X/AFZrP3L/AHh+dcOLTbVjzcd8SFopNy/3h+dG5f7w/OuTlfY4BaKTcv8AeH50bl/vD86OV9gFopNy/wB4fnRuX+8Pzo5X2AWik3L/AHh+dG5f7w/OjlfYBaKTcv8AeH50bl/vD86OV9gFopNy/wB4fnRuX+8Pzo5X2AWik3L/AHh+dG5f7w/OjlfYBaKTcv8AeH50bl/vD86OV9gFopNy/wB4fnRuX+8Pzo5X2AWik3L/AHh+dG5f7w/OjlfYBaKTcv8AeH50bl/vD86OV9gFopNy/wB4fnRuX+8Pzo5X2AWik3L/AHh+dG5f7w/OjlfYBaKTcv8AeH50bl/vD86OV9gFopNy/wB4fnRuX+8Pzo5X2AWik3L/AHh+dG5f7w/OjlfYBaKTcv8AeH50bl/vD86OV9gFopNy/wB4fnRuX+8Pzo5X2AWik3L/AHh+dG5f7w/OjlfYBaKTcv8AeH50bl/vD86OV9gFopNy/wB4fnRuX+8Pzo5X2AWik3L/AHh+dG5f7w/OjlfYBaKTcv8AeH50bl/vD86OV9gFopNy/wB4fnRuX+8Pzo5X2AWik3L/AHh+dG5f7w/OjlfYBaKTcv8AeH50bl/vD86OV9gFopNy/wB4fnRuX+8Pzo5X2AWik3L/AHh+dG5f7w/OjlfYBaKTcv8AeH50bl/vD86OV9gFopNy/wB4fnRuX+8Pzo5X2AWik3L/AHh+dG5f7w/OjlfYBaKTcv8AeH50bl/vD86OV9gFopNy/wB4fnRuX+8Pzo5X2AuW33DU9QWpBTg1PXqUfgR7eH/hoKKKK1Njw/Xv+Rh1P/r7l/8AQzWfWhr3/Iw6n/19y/8AoZrPoAKKKKACiiigAooooAK9w0H/AJF7TP8Ar0i/9AFeH17hoP8AyL2mf9ekX/oAoA0KKKKAILwkWrkelciZpMn5zXW3v/HpJ9K48/eP1r3sohGUJXVzCqlcd50n980edJ/fNMor2PZU/wCVfcY2Q/zpP75o86T++aZRR7Kn/KvuCyH+dJ/fNHnSf3zTKKPZU/5V9wWQ/wA6T++aPOk/vmmUUeyp/wAq+4LIf50n980edJ/fNMoo9lT/AJV9wWQ/zpP75o86T++aZRR7Kn/KvuCyH+dJ/fNHnSf3zTKKPZU/5V9wWQ/zpP75o86T++aZRR7Kn/KvuCyH+dJ/fNHnSf3zTKKPZU/5V9wWQ/zpP75o86T++aZRR7Kn/KvuCyH+dJ/fNHnSf3zTKKPZU/5V9wWQ/wA6T++aPOk/vmmUUeyp/wAq+4LIf50n980edJ/fNMoo9lT/AJV9wWQ/zpP75o86T++aZRR7Kn/KvuCyH+dJ/fNHnSf3zTKKPZU/5V9wWQ/zpP75o86T++aZRR7Kn/KvuCyH+dJ/fNHnSf3zTKKPZU/5V9wWQ/zpP75o86T++aZRR7Kn/KvuCyH+dJ/fNHnSf3zTKKPZU/5V9wWQ/wA6T++aPOk/vmmUUeyp/wAq+4LIf50n980edJ/fNMoo9lT/AJV9wWQ/zpP75o86T++aZRR7Kn/KvuCyH+dJ/fNHnSf3zTKKPZU/5V9wWQ/zpP75o86T++aZRR7Kn/KvuCyH+dJ/fNHnSf3zTKKPZU/5V9wWQ/zpP75o86T++aZRR7Kn/KvuCyH+dJ/fNHnSf3zTKKPZU/5V9wWQ/wA6T++aPOk/vmmUUeyp/wAq+4LIf50n980edJ/fNMoo9lT/AJV9wWQ/zpP75o86T++aZRR7Kn/KvuCyH+dJ/fNHnSf3zTKKPZU/5V9wWQ/zpP75o86T++aZRR7Kn/KvuCyH+dJ/fNHnSf3zTKKPZU/5V9wWR0uiMzWxLHNalZWhf8exrVr5PGpKvJI6ofCgooorlLPD9e/5GHU/+vuX/wBDNZ9aGvf8jDqf/X3L/wChms+gAooooAKKKKACiiigAr3DQf8AkXtM/wCvSL/0AV4fXuGg/wDIvaZ/16Rf+gCgDQooooAq6g6x2UjMcACuFbVLPcf3w612PiH/AJAlz/u14O7HzG5PU967sJjpYZNJXuRKHMejf2pZ/wDPYUf2pZ/89hXm+5vU/nRub1P511/2zP8AlRPskekf2pZ/89hR/aln/wA9hXm+5vU/nRub1P50f2zP+VB7JHpH9qWf/PYUf2pZ/wDPYV5vub1P50bm9T+dH9sz/lQeyR6R/aln/wA9hR/aln/z2Feb7m9T+dG5vU/nR/bM/wCVB7JHpH9qWf8Az2FH9qWf/PYV5vub1P50bm9T+dH9sz/lQeyR6R/aln/z2FH9qWf/AD2Feb7m9T+dG5vU/nR/bM/5UHskekf2pZ/89hR/aln/AM9hXm+5vU/nRub1P50f2zP+VB7JHpH9qWf/AD2FH9qWf/PYV5vub1P50bm9T+dH9sz/AJUHskekf2pZ/wDPYUf2pZ/89hXm+5vU/nRub1P50f2zP+VB7JHpH9qWf/PYUf2pZ/8APYV5vub1P50bm9T+dH9sz/lQeyR6R/aln/z2FH9qWf8Az2Feb7m9T+dG5vU/nR/bM/5UHskekf2pZ/8APYUf2pZ/89hXm+5vU/nRub1P50f2zP8AlQeyR6R/aln/AM9hR/aln/z2Feb7m9T+dG5vU/nR/bM/5UHskekf2pZ/89hR/aln/wA9hXm+5vU/nRub1P50f2zP+VB7JHpH9qWf/PYUf2pZ/wDPYV5vub1P50bm9T+dH9sz/lQeyR6R/aln/wA9hR/aln/z2Feb7m9T+dG5vU/nR/bM/wCVB7JHpH9qWf8Az2FH9qWf/PYV5vub1P50bm9T+dH9sz/lQeyR6R/aln/z2FH9qWf/AD2Feb7m9T+dG5vU/nR/bM/5UHskekf2pZ/89hR/aln/AM9hXm+5vU/nRub1P50f2zP+VB7JHpH9qWf/AD2FH9qWf/PYV5vub1P50bm9T+dH9sz/AJUHskekf2pZ/wDPYUf2pZ/89hXm+5vU/nRub1P50f2zP+VB7JHpH9qWf/PYUf2pZ/8APYV5vub1P50bm9T+dH9sz/lQeyR6R/aln/z2FH9qWf8Az2Feb7m9T+dG5vU/nR/bM/5UHskekf2pZ/8APYUf2pZ/89hXm+5vU/nRub1P50f2zP8AlQeyR6R/aln/AM9hR/aln/z2Feb7m9T+dG5vU/nR/bM/5UHskekf2pZ/89hR/aln/wA9hXm+5vU/nRub1P50f2zP+VB7JHpH9qWf/PYUf2pZ/wDPYV5vub1P50bm9T+dH9sz/lQeyR6R/aln/wA9hR/aln/z2Feb7m9T+dG5vU/nR/bM/wCVB7JHpH9qWf8Az2FH9qWf/PYV5vub1P50bm9T+dH9sz/lQeyR6R/aln/z2FH9qWf/AD2Feb7m9T+dG5vU/nR/bM/5UHskekf2pZ/89hR/aln/AM9hXm+5vU/nRub1P50f2zP+VB7JHpH9qWf/AD2FH9qWf/PYV5vub1P50bm9T+dH9sz/AJUHskekf2pZ/wDPYUf2pZ/89hXm+5vU/nRub1P50f2zP+VB7JHufhy4juLQtGwYVtVxXw4JOjvn1rta8utVdWbm+polZWCiiishnh+vf8jDqf8A19y/+hms+tDXv+Rh1P8A6+5f/QzWfQAUUUUAFFFFABRRRQAV7hoP/IvaZ/16Rf8AoArw+vcNB/5F7TP+vSL/ANAFAGhRRRQBl+If+QHc/wC7Xg7/AOsb6mvePEP/ACA7n/drwd/9Y31NADaKKKACiiigAooooAKKKKACiiigAooooAKKKKACiiigAooooAKKKKACiiigAooooAKKKKACiiigAooooAKKKKACiiigAooooAKKKKACiiigAooooAKKKKACiiigAooooAKKKKACiiigAooooAKKKKACiiigAooooAKKKKACiiigAooooA9Z+HH/ACB3+tdrXFfDj/kDv9a7WgAooooA8P17/kYdT/6+5f8A0M1n1oa9/wAjDqf/AF9y/wDoZrPoAKKKKACiiigAooooAK9w0H/kXtM/69Iv/QBXh9e4aD/yL2mf9ekX/oAoA0KKKKAMvxD/AMgO5/3a8Hf/AFjfU17x4h/5Adz/ALteDv8A6xvqaAG0UUUAFFFFABRRRQAUUUUAFFFFABRRRQAUUUUAFFFFABRRRQAUUUUAFFFFABRRRQAUUUUAFFFFABRRRQAUUUUAFFFFABRRRQAUUUUAFFFFABRRRQAUUUUAFFFFABRRRQAUUUUAFFFFABRRRQAUUUUAFFFFABRRRQAUUUUAFFFFABRRRQB6z8OP+QO/1rta4r4cf8gd/rXa0AFFFFAHh+vf8jDqf/X3L/6Gaz60Ne/5GHU/+vuX/wBDNZ9ABRRRQAUUUUAFFFFABXuGg/8AIvaZ/wBekX/oArw+vcNB/wCRe0z/AK9Iv/QBQBoUUUUAZfiH/kB3P+7Xg7/6xvqa948Q/wDIDuf92vB3/wBY31NADaKKKACiiigAooooAKKKKACiiigAooooAKKKKACiiigAooooAKKKKACiiigAooooAKKKKACiiigAooooAKKKKACiiigAooooAKKKKACiiigAooooAKKKKACiiigAooooAKKKKACiiigAooooAKKKKACiiigAooooAKKKKACiiigAooooA9Z+HH/IHf612tcV8OP+QO/1rtaACiiigDw/Xv8AkYdT/wCvuX/0M1n1oa9/yMOp/wDX3L/6Gaz6ACiiigAooooAKKKKACvcNB/5F7TP+vSL/wBAFeH17hoP/IvaZ/16Rf8AoAoA0KKKKAMvxD/yA7n/AHa8Hf8A1jfU17x4h/5Adz/u14O/+sb6mgBtFFFABRRRQAUUUUAFFFFABRRRQAUUUUAFFFFABRRRQAUUUUAFFFFABRRRQAUUUUAFFFFABRRRQAUUUUAFFFFABRRRQAUUUUAFFFFABRRRQAUUUUAFFFFABRRRQAUUUUAFFFFABRRRQAUUUUAFFFFABRRRQAUUUUAFFFFABRRRQAUUUUAes/Dj/kDv9a7WuK+HH/IHf612tABRRRQB4fr3/Iw6n/19y/8AoZrPrQ17/kYdT/6+5f8A0M1n0AFFFFABRRRQAUUUUAFe4aD/AMi9pn/XpF/6AK8Pr3DQf+Re0z/r0i/9AFAGhRRRQBl+If8AkB3P+7Xg7/6xvqa948Q/8gO5/wB2vB3/ANY31NADaKKKACiiigAooooAKKKKACiiigAooooAKKKKACiiigAooooAKKKKACiiigAooooAKKKKACiiigAooooAKKKKACiiigAooooAKKKKACiiigAooooAKKKKACiiigAooooAKKKKACiiigAooooAKKKKACiiigAooooAKKKKACiiigAooooA9Z+HH/IHf612tcV8OP8AkDv9a7WgAooooA8P17/kYdT/AOvuX/0M1n1oa9/yMOp/9fcv/oZrPoAKKKKACiiigAooooAK9w0H/kXtM/69Iv8A0AV4fXuGg/8AIvaZ/wBekX/oAoA0KKKKAMvxD/yA7n/drwd/9Y31Ne8eIf8AkB3P+7Xg7/6xvqaAG0UUUAFFFFABRRRQAUUUUAFFFFABRRRQAUUUUAFFFFABRRRQAUUUUAFFFFABRRRQAUUUUAFFFFABRRRQAUUUUAFFFFABRRRQAUUUUAFFFFABRRRQAUUUUAFFFFABRRRQAUUUUAFFFFABRRRQAUUUUAFFFFABRRRQAUUUUAFFFFABRRRQB6z8OP8AkDv9a7WuK+HH/IHf612tABRRRQB4fr3/ACMOp/8AX3L/AOhms+tDXv8AkYdT/wCvuX/0M1n0AFFFFABRRRQAUUUUAFe4aD/yL2mf9ekX/oArw+vcNB/5F7TP+vSL/wBAFAGhRRRQBl+If+QHc/7teDv/AKxvqa948Q/8gO5/3a8Hf/WN9TQA2iiigAooooAKKKKACiiigAooooAKKKKACiiigAooooAKKKKACiiigAooooAKKKKACiiigAooooAKKKKACiiigAooooAKKKKACiiigAooooAKKKKACiiigAooooAKKKKACiiigAooooAKKKKACiiigAooooAKKKKACiiigAooooAKKKKAPWfhx/yB3+tdrXFfDj/kDv8AWu1oAKKKKAPD9e/5GHU/+vuX/wBDNZ9aGvf8jDqf/X3L/wChms+gAooooAKKKKACiiigAr3DQf8AkXtM/wCvSL/0AV4fXuGg/wDIvaZ/16Rf+gCgDQooooAy/EP/ACA7n/drwd/9Y31Ne8eIf+QHc/7teDv/AKxvqaAG0UUUAFFFFABRRRQAUUUUAFFFFABRRRQAUUUUAFFFFABRRRQAUUUUAFFFFABRRRQAUUUUAFFFFABRRRQAUUUUAFFFFABRRRQAUUUUAFFFFABRRRQAUUUUAFFFFABRRRQAUUUUAFFFFABRRRQAUUUUAFFFFABRRRQAUUUUAFFFFABRRRQB6z8OP+QO/wBa7WuK+HH/ACB3+tdrQAUUUUAeH69/yMOp/wDX3L/6Gaz60Ne/5GHU/wDr7l/9DNZ9ABRRRQAUUUUAFFFFABXuGg/8i9pn/XpF/wCgCvD69w0H/kXtM/69Iv8A0AUAaFFFFAGX4h/5Adz/ALteDv8A6xvqa948Q/8AIDuf92vB3/1jfU0ANooooAKKKKACiiigAooooAKKKKACiiigAooooAKKKKACiiigAooooAKKKKACiiigAooooAKKKKACiiigAooooAKKKKACiiigAooooAKKKKACiiigAooooAKKKKACiiigAooooAKKKKACiiigAooooAKKKKACiiigAooooAKKKKACiiigD1n4cf8AIHf612tcV8OP+QO/1rtaACiiigDw/Xv+Rh1P/r7l/wDQzWfWhr3/ACMOp/8AX3L/AOhms+gAooooAKKKKACiiigAr3DQf+Re0z/r0i/9AFeH17hoP/IvaZ/16Rf+gCgDQooooAy/EP8AyA7n/drwd/8AWN9TXvHiH/kB3P8Au14O/wDrG+poAbRRRQAUUUUAFFFFABRRRQAUUUUAFFFFABRRRQAUUUUAFFFFABRRRQAUUUUAFFFFABRRRQAUUUUAFFFFABRRRQAUUUUAFFFFABRRRQAUUUUAFFFFABRRRQAUUUUAFFFFABRRRQAUUUUAFFFFABRRRQAUUUUAFFFFABRRRQAUUUUAFFFFAHrPw4/5A7/Wu1rivhx/yB3+tdrQAUUUUAeH69/yMOp/9fcv/oZrPrQ17/kYdT/6+5f/AEM1n0AFFFFABRRRQAUUUUAFe4aD/wAi9pn/AF6Rf+gCvD69w0H/AJF7TP8Ar0i/9AFAGhRRRQBl+If+QHc/7teDv/rG+pr3jxD/AMgO5/3a8Hf/AFjfU0ANooooAKKKKACiiigAooooAKKKKACiiigAooooAKKKKACiiigAooooAKKKKACiiigAooooAKKKKACiiigAooooAKKKKACiiigAooooAKKKKACiiigAooooAKKKKACiiigAooooAKKKKACiiigAooooAKKKKACiiigAooooAKKKKACiiigD1n4cf8gd/rXa1xXw4/5A7/Wu1oAKKKKAPD9e/wCRh1P/AK+5f/QzWfWhr3/Iw6n/ANfcv/oZrPoAKKKKACiiigAooooAK9w0H/kXtM/69Iv/AEAV4fXuGg/8i9pn/XpF/wCgCgDQooooAy/EP/IDuf8Adrwd/wDWN9TXvHiH/kB3P+7Xg7/6xvqaAG0UUUAFFFFABRRRQAUUUUAFFFFABRRRQAUUUUAFFFFABRRRQAUUUUAFFFFABRRRQAUUUUAFFFFABRRRQAUUUUAFFFFABRRRQAUUUUAFFFFABRRRQAUUUUAFFFFABRRRQAUUUUAFFFFABRRRQAUUUUAFFFFABRRRQAUUUUAFFFFABRRRQB6z8OP+QO/1rta4r4cf8gd/rXa0AFFFFAHh+vf8jDqf/X3L/wChms+tDXv+Rh1P/r7l/wDQzWfQAUUUUAFFFFABRRRQAV7hoP8AyL2mf9ekX/oArw+vcNB/5F7TP+vSL/0AUAaFFFFAGX4h/wCQHc/7teDv/rG+pr3jxD/yA7n/AHa8Hf8A1jfU0ANooooAKKKKACiiigAooooAKKKKACiiigAooooAKKKKACiiigAooooAKKKKACiiigAooooAKKKKACiiigAooooAKKKKACiiigAooooAKKKKACiiigAooooAKKKKACiiigAooooAKKKKACiiigAooooAKKKKACiiigAooooAKKKKACiiigD1n4cf8gd/rXa1xXw4/wCQO/1rtaACiiigDw/Xv+Rh1P8A6+5f/QzWfWhr3/Iw6n/19y/+hms+gAooooAKKKKACiiigAr3DQf+Re0z/r0i/wDQBXh9e4aD/wAi9pn/AF6Rf+gCgDQooooAy/EP/IDuf92vB3/1jfU17x4h/wCQHc/7teDv/rG+poAbRRRQAUUUUAFFFFABRRRQAUUUUAFFFFABRRRQAUUUUAFFFFABRRRQAUUUUAFFFFABRRRQAUUUUAFFFFABRRRQAUUUUAFFFFABRRRQAUUUUAFFFFABRRRQAUUUUAFFFFABRRRQAUUUUAFFFFABRRRQAUUUUAFFFFABRRRQAUUUUAFFFFAHrPw4/wCQO/1rta4r4cf8gd/rXa0AFFFFAHh+vf8AIw6n/wBfcv8A6Gaz60Ne/wCRh1P/AK+5f/QzWfQAUUUUAFFFFABRRRQAV7hoP/IvaZ/16Rf+gCvD69w0H/kXtM/69Iv/AEAUAaFFFFAGX4h/5Adz/u14O/8ArG+pr3jxD/yA7n/drwd/9Y31NADaKKKACiiigAooooAKKKKACiiigAooooAKKKKACiiigAooooAKKKKACiiigAooooAKKKKACiiigAooooAKKKKACiiigAooooAKKKKACiiigAooooAKKKKACiiigAooooA3PDuix6xM6SNt21J4i0KLR9nlvu3VoeBP+PqX/Pap/Hn/ACxrDmftbHqqhT+pe0tqcRRRRW55QUUUUAFFFFABRRRQAUUUUAFFFFABRRRQAUUUUAes/Dj/AJA7/Wu1rivhx/yB3+tdrQAUUUUAeH69/wAjDqf/AF9y/wDoZrPrQ17/AJGHU/8Ar7l/9DNZ9ABRRRQAUUUUAFFFFABXuGg/8i9pn/XpF/6AK8Pr3DQf+Re0z/r0i/8AQBQBoUUUUAZfiH/kB3P+7Xg7/wCsb6mvePEP/IDuf92vB3/1jfU0ANooooAKKKKACiiigAooooAKKKKACiiigAooooAKKKKACiiigAooooAKKKKACiiigAooooAKKKKACiiigAooooAKKKKACiiigAooooAKKKKACiiigAooooAKKKKACiiigC/purXGluzwHBPXmnalrNzqm37Qc7enNZ1FLlV7mntZ8nJfQKKKKZmFFFFABRRRQAUUUUAFFFFABRRRQAUUUUAFFFFAHrPw4/5A7/Wu1rivhx/yB3+tdrQAUUUUAeH69/yMOp/9fcv/AKGaz60Ne/5GHU/+vuX/ANDNZ9ABRRRQAUUUUAFFFFABXuGg/wDIvaZ/16Rf+gCvD69w0H/kXtM/69Iv/QBQBoUUUUAZfiH/AJAdz/u14O/+sb6mvePEP/IDuf8Adrwd/wDWN9TQA2iiigAooooAKKKKACiiigAooooAKKKKACiiigAooooAKKKKACiiigAooooAKKKKACiiigAooooAKKKKACiiigAooooAKKKKACiiigAooooAKKKKACiiigAooooAKKKKACiiigAooooAKKKKACiiigAooooAKKKKACiiigAooooAKKKKAPWfhx/yB3+tdrXFfDj/AJA7/Wu1oAKKKKAPD9e/5GHU/wDr7l/9DNZ9aGvf8jDqf/X3L/6Gaz6ACiiigAooooAKKKKACvcNB/5F7TP+vSL/ANAFeH17hoP/ACL2mf8AXpF/6AKANCiiigDL8Q/8gO5/3a8Hf/WN9TXvHiH/AJAdz/u14O/+sb6mgBtFFFABRRRQAUUUUAFFFFABRRRQAUUUUAFFFFABRRRQAUUUUAFFFFABRRRQAUUUUAFFFFABRRRQAUUUUAFFFFABRRRQAUUUUAFFFFABRRRQAUUUUAFFFFABRRRQAUUUUAFFFFABRRRQAUUUUAFFFFABRRRQAUUUUAFFFFABRRRQAUUUUAes/Dj/AJA7/Wu1rivhx/yB3+tdrQAUUUUAeH69/wAjDqf/AF9y/wDoZrPrQ17/AJGHU/8Ar7l/9DNZ9ABRRRQAUUUUAFFFFABXuGg/8i9pn/XpF/6AK8Pr3DQf+Re0z/r0i/8AQBQBoUUUUAZfiH/kB3P+7Xg7/wCsb6mvePEP/IDuf92vB3/1jfU0ANooooAKKKKACiiigAooooAKKKKACiiigAooooAKKKKACiiigAooooAKKKKACiiigAooooAKKKKACiiigAooooAKKKKACiiigAooooAKKKKACiiigAooooAKKKKACiiigAooooAKKKKACiiigAooooAKKKKACiiigAooooAKKKKACiiigD1n4cf8gd/rXa1xXw4/5A7/AFrtaACiiigDw/Xv+Rh1P/r7l/8AQzWfWhr3/Iw6n/19y/8AoZrPoAKKKKACiiigAooooAK9w0H/AJF7TP8Ar0i/9AFeH17hoP8AyL2mf9ekX/oAoA0KKKKAMvxD/wAgO5/3a8Hf/WN9TXvHiH/kB3P+7Xg7/wCsb6mgBtFFFABRRRQAUUUUAFFFFABRRRQAUUUUAFFFFABRRRQAUUUUAFFFFABRRRQAUUUUAFFFFABRRRQAUUUUAFFFFABRRRQAUUUUAFFFFABRRRQAUUUUAFFFFABRRRQAUUUUAFFFFABRRRQAUUUUAFFFFABRRRQAUUUUAFFFFABRRRQAUUUUAes/Dj/kDv8AWu1rivhx/wAgd/rXa0AFFFFAHh+vf8jDqf8A19y/+hms+tDXv+Rh1P8A6+5f/QzWfQAUUUUAFFFFABRRRQAV7hoP/IvaZ/16Rf8AoArw+vcNB/5F7TP+vSL/ANAFAGhRRRQBl+If+QHc/wC7Xg7/AOsb6mvePEP/ACA7n/drwd/9Y31NADaKKKACiiigAooooAKKKKACiiigAooooAKKKKACiiigAooooAKKKKACiiigAooooAKKKKACiiigAooooAKKKKACiiigAooooAKKKKACiiigAooooAKKKKACiiigAooooAKKKKACiiigAooooAKKKKACiiigAooooAKKKKACiiigAooooA9Z+HH/ACB3+tdrXFfDj/kDv9a7WgAooooA8P17/kYdT/6+5f8A0M1n1oa9/wAjDqf/AF9y/wDoZrPoAKKKKACiiigAooooAK9w0H/kXtM/69Iv/QBXh9e3aE6jw9pnP/LpF/6AKBNpbmlRTd6+tG9fWgXPHuZviH/kB3P+7Xg7/wCsb6mvd/EDqdEuef4a8If/AFjfU0DTT2G0UUUDCiiigAooooAKKKKACiiigAooooAKKKKACiiigAooooAKKKKACiiigAooooAKKKKACiiigAooooAKKKKACiiigAooooAKKKKACiiigAooooAKKKKACiiigAooooAKKKKACiiigAooooAKKKKACiiigAooooAKKKKACipYbeW4bbEhY+gqx/ZN9/z7vSuilCT1SKVFXf7Jvv8An3ej+yb7/n3ejmQ/ZT7M9M+HH/IHf612tcZ4Aje00p0nUo2ehrr/ADo/74o5kHsp9mSUVH50f98UedH/AHxRzIPZT7M8T17/AJGHU/8Ar7l/9DNZ9aGukHxBqRHQ3Uv/AKGaz6ZAUUUUAFFFFABRRRQAV7Hop/4kOnf9e0f/AKCK8cr2PRf+QDp3/XtH/wCgimjzsx+GJeyfWjJ9aKKZ5NzO10/8Sa4/3a8Tf77fU17Zrv8AyBrj/drxN/vt9TSZ62XfCxtFFFI9EKKKKACiiigAooooAKKKKACiiigAooooAKKKKACiiigAooooAKKKKACiiigAooooAKKKKACiiigAooooAKKKKACiiigAooooAKKKKACiiigAooooAKKKKACiiigAooooAKKKKACiiigAooooAKKKKACiiigAooooA6jwSAdSbIB4716J5af3F/KvM/Cl/BYXzSTttXFdr/wk+mf89q460W5aH0WW1acaFpNGv5af3F/Kjy0/uL+VZH/CT6Z/z2o/4SfTP+e1Zckux6H1ij/MjZAC/dGPpS5Pqaq2d9Bfx+ZA25as1LujWLjJXQuT6mjJ9TSUUDsjyvVv+Qzff9fEn/oRqnVzVv8AkM33/XxJ/wChGqdelHZHxdX45erCiiimZhRRRQAUUUUAFex6L/yAdO/69o//AEEV45VhfEWpQIIo58Ig2qPQDig5cVQdZJJntNFeMf8ACT6r/wA/Bo/4SfVf+fg07nF/Z8+56trv/IGuP92vE3++31NaU3iHUp4jHJPlT1FZZ5OaR24Wg6KabCiiig6gooooAKKKKACiiigAooooAKKKKACiiigAooooAKKKKACiiigAooooAKKKKACiiigAooooAKKKKACiiigAooooAKKKKACiiigAooooAKKKKACiiigAooooAKKKKACiiigAooooAKKKKACiiigAooooAKKKKACiiigAooooAKKKKAOx8Ma9Z6bZNHO2GPvW7/wl+mf3/wBa8xorGVGMndnoUsyrUoKEbWR6d/wl+mf3/wBaP+Ev0z+/+teY0Uvq8TT+1q/ka1/MtxqNzOn3JJXdfoSTVemp/q1+gp1brQ8yT5m2wooooEFFFFABRRRQAVTf/WN9TVyqb/6xvqaAG0UUUAFFFFABRRRQAUUUUAFFFFABRRRQAUUUUAFFFFABRRRQAUUUUAFFFFABRRRQAUUUUAFFFFABRRRQAUUUUAFFFFABRRRQAUUUUAFFFFABRRRQAUUUUAFFFFABRRRQAUUUUAFFFFABRRRQAUUUUAFFFFABRRRQAUUUUAFFFFABRRRQAUUUUAFFFFABRRRQAUUUUAXE/wBWv0FOpqf6tfoKdQAUUUUAFFFFABRRRQAVTf8A1jfU1cqm/wDrG+poAbRRRQAUUUUAFFFFABRRRQAUUUUAFFFFABRRRQAUUUUAFFFFABRRRQAUUUUAFFFFABRRRQAUUUUAFFFFABRRRQAUUUUAFFFFABRRRQAUUUUAFFFFABRRRQAUUUUAFFFFABRRRQAUUUUAFFFFABRRRQAUUUUAFFFFABRRRQAUUUUAFFFFABRRRQAUUUUAFFFFABRRRQBcT/Vr9BTqan+rX6CnUAFFFFAH/9k=;" vertex="1" parent="1">
          <mxGeometry x="40" y="102.53999999999999" width="68.31" height="77.46" as="geometry" />
        </mxCell>
        <mxCell id="r_Dj4uReKLwVwEFs2foP-9" value="States(St)" style="text;html=1;align=center;verticalAlign=middle;resizable=0;points=[];autosize=1;strokeColor=none;fillColor=none;" vertex="1" parent="1">
          <mxGeometry x="120" y="50" width="80" height="30" as="geometry" />
        </mxCell>
        <mxCell id="r_Dj4uReKLwVwEFs2foP-10" style="edgeStyle=orthogonalEdgeStyle;rounded=0;orthogonalLoop=1;jettySize=auto;html=1;entryX=0.5;entryY=0;entryDx=0;entryDy=0;" edge="1" parent="1" source="r_Dj4uReKLwVwEFs2foP-11" target="r_Dj4uReKLwVwEFs2foP-6">
          <mxGeometry relative="1" as="geometry" />
        </mxCell>
        <mxCell id="r_Dj4uReKLwVwEFs2foP-20" style="edgeStyle=orthogonalEdgeStyle;rounded=0;orthogonalLoop=1;jettySize=auto;html=1;exitX=0.75;exitY=1;exitDx=0;exitDy=0;entryX=1;entryY=0.5;entryDx=0;entryDy=0;" edge="1" parent="1" source="r_Dj4uReKLwVwEFs2foP-11" target="r_Dj4uReKLwVwEFs2foP-16">
          <mxGeometry relative="1" as="geometry" />
        </mxCell>
        <mxCell id="r_Dj4uReKLwVwEFs2foP-11" value="Environment&lt;br&gt;" style="rounded=1;whiteSpace=wrap;html=1;fillColor=#e1d5e7;strokeColor=#9673a6;" vertex="1" parent="1">
          <mxGeometry x="230" y="50" width="120" height="60" as="geometry" />
        </mxCell>
        <mxCell id="r_Dj4uReKLwVwEFs2foP-13" value="Action(At)" style="text;html=1;align=center;verticalAlign=middle;resizable=0;points=[];autosize=1;strokeColor=none;fillColor=none;" vertex="1" parent="1">
          <mxGeometry x="180" y="120" width="80" height="30" as="geometry" />
        </mxCell>
        <mxCell id="r_Dj4uReKLwVwEFs2foP-15" value="Reward(Rt)" style="text;html=1;align=center;verticalAlign=middle;resizable=0;points=[];autosize=1;strokeColor=none;fillColor=none;" vertex="1" parent="1">
          <mxGeometry x="320" y="160" width="80" height="30" as="geometry" />
        </mxCell>
        <mxCell id="r_Dj4uReKLwVwEFs2foP-19" style="edgeStyle=orthogonalEdgeStyle;rounded=0;orthogonalLoop=1;jettySize=auto;html=1;exitX=0.5;exitY=0;exitDx=0;exitDy=0;entryX=0.25;entryY=1;entryDx=0;entryDy=0;" edge="1" parent="1" source="r_Dj4uReKLwVwEFs2foP-16" target="r_Dj4uReKLwVwEFs2foP-11">
          <mxGeometry relative="1" as="geometry" />
        </mxCell>
        <mxCell id="r_Dj4uReKLwVwEFs2foP-16" value="Linear" style="whiteSpace=wrap;html=1;aspect=fixed;fillColor=#dae8fc;strokeColor=#6c8ebf;" vertex="1" parent="1">
          <mxGeometry x="220" y="190" width="40" height="40" as="geometry" />
        </mxCell>
        <mxCell id="r_Dj4uReKLwVwEFs2foP-21" value="" style="edgeStyle=orthogonalEdgeStyle;rounded=0;orthogonalLoop=1;jettySize=auto;html=1;" edge="1" parent="1" source="r_Dj4uReKLwVwEFs2foP-22" target="r_Dj4uReKLwVwEFs2foP-33">
          <mxGeometry relative="1" as="geometry" />
        </mxCell>
        <mxCell id="r_Dj4uReKLwVwEFs2foP-22" value="VIT" style="shape=trapezoid;perimeter=trapezoidPerimeter;fixedSize=1;rotation=90;fillColor=#dae8fc;strokeColor=#6c8ebf;align=center;fontColor=default;labelBackgroundColor=none;whiteSpace=wrap;html=1;spacingLeft=0;direction=east;" vertex="1" parent="1">
          <mxGeometry x="474" y="180" width="120" height="60" as="geometry" />
        </mxCell>
        <mxCell id="r_Dj4uReKLwVwEFs2foP-23" value="" style="edgeStyle=orthogonalEdgeStyle;rounded=0;orthogonalLoop=1;jettySize=auto;html=1;" edge="1" parent="1" source="r_Dj4uReKLwVwEFs2foP-24" target="r_Dj4uReKLwVwEFs2foP-22">
          <mxGeometry relative="1" as="geometry" />
        </mxCell>
        <mxCell id="r_Dj4uReKLwVwEFs2foP-24" value="Image&lt;br&gt;" style="ellipse;whiteSpace=wrap;html=1;aspect=fixed;fillColor=#d5e8d4;strokeColor=#82b366;" vertex="1" parent="1">
          <mxGeometry x="414" y="180" width="60" height="60" as="geometry" />
        </mxCell>
        <mxCell id="r_Dj4uReKLwVwEFs2foP-25" value="" style="shape=image;verticalLabelPosition=bottom;labelBackgroundColor=default;verticalAlign=top;aspect=fixed;imageAspect=0;image=data:image/jpeg,/9j/4AAQSkZJRgABAQAAAQABAAD/2wBDAAgGBgcGBQgHBwcJCQgKDBQNDAsLDBkSEw8UHRofHh0aHBwgJC4nICIsIxwcKDcpLDAxNDQ0Hyc5PTgyPC4zNDL/2wBDAQkJCQwLDBgNDRgyIRwhMjIyMjIyMjIyMjIyMjIyMjIyMjIyMjIyMjIyMjIyMjIyMjIyMjIyMjIyMjIyMjIyMjL/wAARCAL6AqADASIAAhEBAxEB/8QAHwAAAQUBAQEBAQEAAAAAAAAAAAECAwQFBgcICQoL/8QAtRAAAgEDAwIEAwUFBAQAAAF9AQIDAAQRBRIhMUEGE1FhByJxFDKBkaEII0KxwRVS0fAkM2JyggkKFhcYGRolJicoKSo0NTY3ODk6Q0RFRkdISUpTVFVWV1hZWmNkZWZnaGlqc3R1dnd4eXqDhIWGh4iJipKTlJWWl5iZmqKjpKWmp6ipqrKztLW2t7i5usLDxMXGx8jJytLT1NXW19jZ2uHi4+Tl5ufo6erx8vP09fb3+Pn6/8QAHwEAAwEBAQEBAQEBAQAAAAAAAAECAwQFBgcICQoL/8QAtREAAgECBAQDBAcFBAQAAQJ3AAECAxEEBSExBhJBUQdhcRMiMoEIFEKRobHBCSMzUvAVYnLRChYkNOEl8RcYGRomJygpKjU2Nzg5OkNERUZHSElKU1RVVldYWVpjZGVmZ2hpanN0dXZ3eHl6goOEhYaHiImKkpOUlZaXmJmaoqOkpaanqKmqsrO0tba3uLm6wsPExcbHyMnK0tPU1dbX2Nna4uPk5ebn6Onq8vP09fb3+Pn6/9oADAMBAAIRAxEAPwDw2iiigAooooAKpv8A6xvqauVTf/WN9TQA2iiigAooooAKKKKACiiigAooooAKKKKACiiigAoop8MZmmSMdWOKAGUV20Pw5vZoUkEowwz1FSf8K1vv+eo/MUAcLRXdf8K1vv8AnqPzFH/Ctb7/AJ6j8xQBwtFd1/wrW+/56j8xWTrvhG50O1E8rhgaAOboord0Dw1Pr2/yXC7aAMKiu6/4Vrff89R+Yo/4Vrff89R+YoA4Wiu6/wCFa33/AD1H5ij/AIVrff8APUfmKAOForuT8Nr4KT5o49xXHXtq1ldyW7HJQ4oAr0U+GMzTJGOrHFdnD8Ob2aFJBKMMM9RQBxNFd1/wrW+/56j8xR/wrW+/56j8xQBwtFd1/wAK1vv+eo/MUf8ACtb7/nqPzFAHC0V0mu+EbnQ7UTyuGBrm6ACiiigAooooAKKKKACiinwxmaZIx1Y4oAZRXbQ/Dm9mhSQSjDDPUVJ/wrW+/wCeo/MUAcLRXdf8K1vv+eo/MUf8K1vv+eo/MUAcLRXdf8K1vv8AnqPzFZOu+EbnQ7UTyuGBoA5uiiigAooooAKKKKACiiigAooooAKKsWVq17dx26nBc4rsR8Nr4qD5o59xQBw1FdXq3ge60qxa5kkBVe3FcpQAUUUUAFFFFABRRRQAUUUUAXE/1a/QU6mp/q1+gp1ABRRRQAUUUUAFFFFABVN/9Y31NXKpv/rG+poAbRRRQAUUUUAFFFFABRRRQAUUUUAFFFFABRRRQAVYsP8Aj/g/3xVerFh/x/wf74oA9+sP+PCD/cFJf3YsrKS4IyEGcUth/wAeEH+4Kp+If+QHc/7tAHJN8TIgxH2fofQ1oaN46j1bUFtVh2lu+K8kf/WN9TXQ+CP+RiioA9rriviP/wAgdPrXa1xXxH/5A6fWgDyavR/hl/y8V5xXo/wy/wCXigD0euW8Q+ME0K7EDRb8966mvJviP/yGE+lAGv8A8LNi/wCfb9DXZaNqY1bT0ulXaG7V4DXtXgj/AJF2KgDon/1bfQ14N4h/5Dlz/vV7y/8Aq2+hrwbxD/yHLn/eoAqWH/H/AAf74r36w/48IP8AcFeA2H/H/B/vivfrD/jwg/3BQAl/diyspLgjIQZxXDt8TIgxH2fofQ11viH/AJAdz/u14O/+sb6mgD1vRvHUeragtqsO0t3xXY14p4I/5GKKva6AOK+I/wDyB0+teTV6z8R/+QOn1ryagAooooAKKKKACiiigAqS3l8m4jkxnawNR0UAekW/xJiht44/s+dqgdDUn/CzYv8An2/Q15nVrTrQXt/Fbk43nGaAPQv+Fmxf8+36GtHRvHUeragtqsO0t3xWYvwzjKg/aOo9TWlovgVNJ1BboTbivbNAHZVxXxH/AOQOn1rta4r4j/8AIHT60AeTUUUUAFFFFABRRRQAUUUUAFFFFAGn4e/5Dlt/vV7yn+rX6CvBvD3/ACHLb/er3lP9Wv0FAHO+N/8AkXZa8Vr2rxv/AMi7LXitABRRRQAUUUUAFFFFABRRRQBcT/Vr9BTqan+rX6CnUAFFFFABRRRQAUUUUAFU3/1jfU1cqm/+sb6mgBtFFFABRRRQAUUUUAFFFFABRRRQAUUUUAFFFFABViw/4/4P98VXqxYf8f8AB/vigD36w/48IP8AcFU/EP8AyA7n/dq5Yf8AHhB/uClu7ZLy1eB/uuMGgD56f/WN9TXQ+CP+Riiruj8O9LJJyefarmmeDLDS7xbmEnevtQB0tcV8R/8AkDp9a7WuK+I//IHT60AeTV6P8Mv+XivOK9H+GX/LxQB6PXk3xH/5DCfSvWawNZ8KWWtXAmuCdw9qAPEK9q8Ef8i7FVL/AIV1pfqfyrpdM06LS7NbaH7i0AWn/wBW30NeDeIf+Q5c/wC9XvL/AOrb6GvBvEP/ACHLn/eoAqWH/H/B/vivfrD/AI8IP9wV4DYf8f8AB/vivfrD/jwg/wBwUAU/EP8AyA7n/drwd/8AWN9TX0Ld2yXlq8D/AHXGDXKn4d6WSTk8+1AHC+CP+Riir2uua0zwZYaXeLcwk719q6WgDiviP/yB0+teTV6z8R/+QOn1ryagAooooAKKKKACiiigAooqW1jEt1FG3RmANAEVWLG6ayu47hRkoc16fa/D7TJbWKRicsoJ4qb/AIV1pfqfyoA5wfEq9CgeSOB6CtXw/wCOLrVtUS1kjAVu/FXv+FdaX6n8quaZ4MsNLvFuYSd6+1AHS1xXxH/5A6fWu1riviP/AMgdPrQB5NRRRQAUUUUAFFFFABRRRQAUUUUAafh7/kOW3+9XvKf6tfoK8G8Pf8hy2/3q95T/AFa/QUAc743/AORdlrxWvavG/wDyLsteK0AFFFFABRRRQAUUUUAFFFFAFxP9Wv0FOpqf6tfoKdQAUUUUAFFFFABRRRQAVTf/AFjfU1cr1TSfCelXOjWM8kGXkt43Y+pKgmgDx2ivbv8AhDdH/wCfej/hDdH/AOfegDxGivbv+EN0f/n3o/4Q3R/+fegDxGivbv8AhDdH/wCfej/hDdH/AOfegDxGivbv+EN0f/n3o/4Q3R/+fegDxGivbv8AhDdH/wCfej/hDdH/AOfegDxGivbv+EN0f/n3o/4Q3R/+fegDxGivbv8AhDdH/wCfej/hDdH/AOfegDxGnRyGKRZF6qcivbP+EN0f/n3o/wCEN0f/AJ96APOI/HWrxRrGsnCjA5p3/Ce6x/z0/WvRf+EN0f8A596P+EN0f/n3oA86/wCE91j/AJ6frR/wnusf89P1r0X/AIQ3R/8An3o/4Q3R/wDn3oA86/4T3WP+en61Q1XxNf6vAIbl8qPevVP+EN0f/n3o/wCEN0f/AJ96APEa1NJ1+80bd9lbG7rzXrX/AAhuj/8APvR/whuj/wDPvQB51/wnusf89P1o/wCE91j/AJ6frXov/CG6P/z70f8ACG6P/wA+9AHnX/Ce6x/z0/Wj/hPdY/56frXov/CG6P8A8+9H/CG6P/z70Aecnx7rBBHmdfeudurh7u4eaQ5djk17R/whuj/8+9H/AAhuj/8APvQB4nHIYpFkXqpyK6WPx1q8UaxrJwowOa9H/wCEN0f/AJ96P+EN0f8A596APOv+E91j/np+tH/Ce6x/z0/WvRf+EN0f/n3o/wCEN0f/AJ96APOv+E91j/np+tH/AAnusf8APT9a9F/4Q3R/+fej/hDdH/596APK9V8TX+rwCG5fKj3rFr27/hDdH/596P8AhDdH/wCfegDxGivbv+EN0f8A596P+EN0f/n3oA8Ror27/hDdH/596P8AhDdH/wCfegDxGivbv+EN0f8A596P+EN0f/n3oA8Rp0chikWReqnIr2z/AIQ3R/8An3o/4Q3R/wDn3oA84j8davFGsaycKMDmnf8ACe6x/wA9P1r0X/hDdH/596P+EN0f/n3oA86/4T3WP+en60f8J7rH/PT9a9F/4Q3R/wDn3o/4Q3R/+fegDzr/AIT3WP8Anp+tUNV8TX+rwCG5fKj3r1T/AIQ3R/8An3o/4Q3R/wDn3oA8Ror27/hDdH/596P+EN0f/n3oA8Ror27/AIQ3R/8An3o/4Q3R/wDn3oA8Ror27/hDdH/596P+EN0f/n3oA8Ror27/AIQ3R/8An3o/4Q3R/wDn3oA8Ror27/hDdH/596P+EN0f/n3oA8Xtbh7S4SaM4dTkV0Q8e6wAB5nT3r0b/hDdH/596P8AhDdH/wCfegDzDUPF2palatbzvlD15rAr27/hDdH/AOfej/hDdH/596APEaK9u/4Q3R/+fej/AIQ3R/8An3oA8Ror27/hDdH/AOfej/hDdH/596APEaK9u/4Q3R/+fej/AIQ3R/8An3oA8Ror27/hDdH/AOfej/hDdH/596APHU/1a/QU6rmrQpbazfQRjCR3EiKPQBiBVOgAooooAKKKKACiiigAr3DQf+Re0z/r0i/9AFeH17hoP/IvaZ/16Rf+gCgDQooooAKKKKACiiigAooooAKKKKACiiigAooooAKKKKACiiigAooooAKKKKACiiigAooooAKKKKACiiigAooooAKKKKACiiigAooooAKKKKACiiigAooooAKKKKACiiigAooooAKKKKACiiigAooooAKKKKACiiigAooooAKKKKACiiigAooooAKKKKACiiigAooooA8P17/kYdT/AOvuX/0M1n1oa9/yMOp/9fcv/oZrPoAKKKKACiiigAooooAK9w0H/kXtM/69Iv8A0AV4fXuGg/8AIvaZ/wBekX/oAoA0KKKKACiiigAooooAKKKKACiiigAooooAKKKKACiiigAooooAKKKKACiiigAooooAKKKKACiiigAooooAKKKKACiiigAooooAKKKKACiiigAooooAKKKKACiiigAooooAKKKKACiiigAooooAKKKKACiiigAooooAKKKKACiiigAooooAKKKKACiiigAooooAKKKKAPD9e/5GHU/+vuX/ANDNZ9aGvf8AIw6n/wBfcv8A6Gaz6ACiiigAooooAKKKKACvcNB/5F7TP+vSL/0AV4fXuGg/8i9pn/XpF/6AKANCiiigAooooAKKKKACiiigAooooAKKKKACiiigAooooAKKKKACiiigAooooAKKKKACiiigAooooAKKKKACiiigAooooAKKKKACiiigAooooAKKKKACiiigAooooAKKKKACiiigAooooAKKKKACiiigAooooAKKKKACiiigAooooAKKKKACiiigAooooAKKKKACiiigDw/Xv+Rh1P8A6+5f/QzWfWhr3/Iw6n/19y/+hms+gAooooAKKKKACiiigAr3DQf+Re0z/r0i/wDQBXh9e4aD/wAi9pn/AF6Rf+gCgDQooooAo6xcPa6XPNGcOoyK8lbxxrAdh5vf1r1TxD/yA7n/AHa8Hf8A1jfU0AdH/wAJzrH/AD2/Wj/hOdY/57frXNUUAdL/AMJzrH/Pb9aP+E51j/nt+tc1RQB0v/Cc6x/z2/Wj/hOdY/57frXNUUAdL/wnOsf89v1o/wCE51j/AJ7frXNUUAdL/wAJzrH/AD2/Wj/hOdY/57frXNUUAdL/AMJzrH/Pb9aP+E51j/nt+tc1RQB0v/Cc6x/z2/Wj/hOdY/57frXNUUAdL/wnOsf89v1o/wCE51j/AJ7frXNUUAdL/wAJzrH/AD2/Wj/hOdY/57frXNUUAdL/AMJzrH/Pb9aP+E51j/nt+tc1RQB0v/Cc6x/z2/Wj/hOdY/57frXNUUAdL/wnOsf89v1o/wCE51j/AJ7frXNUUAdL/wAJzrH/AD2/Wj/hOdY/57frXNUUAdL/AMJzrH/Pb9aP+E51j/nt+tc1RQB0v/Cc6x/z2/Wj/hOdY/57frXNUUAdL/wnOsf89v1o/wCE51j/AJ7frXNUUAdL/wAJzrH/AD2/Wj/hOdY/57frXNUUAdL/AMJzrH/Pb9aP+E51j/nt+tc1RQB0v/Cc6x/z2/Wj/hOdY/57frXNUUAdL/wnOsf89v1o/wCE51j/AJ7frXNUUAdL/wAJzrH/AD2/Wj/hOdY/57frXNUUAdL/AMJzrH/Pb9aP+E51j/nt+tc1RQB0v/Cc6x/z2/Wj/hOdY/57frXNUUAdL/wnOsf89v1o/wCE51j/AJ7frXNUUAdL/wAJzrH/AD2/Wj/hOdY/57frXNUUAdL/AMJzrH/Pb9aP+E51j/nt+tc1RQB0v/Cc6x/z2/Wj/hOdY/57frXNUUAdL/wnOsf89v1o/wCE51j/AJ7frXNUUAdL/wAJzrH/AD2/Wj/hOdY/57frXNUUAdL/AMJzrH/Pb9aP+E51j/nt+tc1RQB0v/Cc6x/z2/Wj/hOdY/57frXNUUAdL/wnOsf89v1o/wCE51j/AJ7frXNUUAdL/wAJzrH/AD2/Wj/hOdY/57frXNUUAez+CtVudV01pbltzA109cV8OP8AkDv9a7WgAooooA8P17/kYdT/AOvuX/0M1n1oa9/yMOp/9fcv/oZrPoAKKKKACiiigAooooAK9w0H/kXtM/69Iv8A0AV4fXuGg/8AIvaZ/wBekX/oAoA0KKKKAMvxD/yA7n/drwd/9Y31Ne8eIf8AkB3P+7Xg7/6xvqaAG0UUUAFFFFABRRRQAUUUUAFFFFABRRRQAUUUUAFFFFABRRRQAUUUUAFFFFABRRRQAUUUUAFFFFABRRRQAUUUUAFFFFABRRRQAUUUUAFFFFABRRRQAUUUUAFFFFABRRRQAUUUUAFFFFABRRRQAUUUUAFFFFABRRRQAUUUUAFFFFABRRRQB6z8OP8AkDv9a7WuK+HH/IHf612tABRRRQB4fr3/ACMOp/8AX3L/AOhms+tDXv8AkYdT/wCvuX/0M1n0AFFFFABRRRQAUUUUAFe4aD/yL2mf9ekX/oArw+vcNB/5F7TP+vSL/wBAFAGhRRRQBl+If+QHc/7teDv/AKxvqa948Q/8gO5/3a8Hf/WN9TQA2iiigAooooAKKKKACiiigAooooAKKKKACiiigAooooAKKKKACiiigAooooAKKKKACiiigAooooAKKKKACiiigAooooAKKKKACiiigAooooAKKKKACiiigAooooAKKKKACiiigAooooAKKKKACiiigAooooAKKKKACiiigAooooAKKKKAPWfhx/yB3+tdrXFfDj/kDv8AWu1oAKKKKAPD9e/5GHU/+vuX/wBDNZ9aGvf8jDqf/X3L/wChms+gAooooAKKKKACiiigAr3DQf8AkXtM/wCvSL/0AV4fXuGg/wDIvaZ/16Rf+gCgDQooooAy/EP/ACA7n/drwd/9Y31Ne8eIf+QHc/7teDv/AKxvqaAG0UUUAFFFFABRRRQAUUUUAFFFFABRRRQAUUUUAFFFFABRRRQAUUUUAFFFFABRRRQAUUUUAFFFFABRRRQAUUUUAFFFFABRRRQAUUUUAFFFFABRRRQAUUUUAFFFFABRRRQAUUUUAFFFFABRRRQAUUUUAFFFFABRRRQAUUUUAFFFFABRRRQB6z8OP+QO/wBa7WuK+HH/ACB3+tdrQAUUUUAeH69/yMOp/wDX3L/6Gaz60Ne/5GHU/wDr7l/9DNZ9ABRRRQAUUUUAFFFFABXuGg/8i9pn/XpF/wCgCvD69w0H/kXtM/69Iv8A0AUAaFFFFAGX4h/5Adz/ALteDv8A6xvqa948Q/8AIDuf92vB3/1jfU0ANooooAKKKKACiiigAooooAKKKKACiiigAooooAKKKKACiiigAooooAKKKKACiiigAooooAKKKKACiiigAooooAKKKKACiiigAooooAKKKKACiiigAooooAKKKKACiiigAooooAKKKKACiiigAooooAKKKKACiiigAooooAKKKKACiiigD1n4cf8AIHf612tcV8OP+QO/1rtaACiiigDw/Xv+Rh1P/r7l/wDQzWfWhr3/ACMOp/8AX3L/AOhms+gAooooAKKKKACiiigAr3DQf+Re0z/r0i/9AFeH17hoP/IvaZ/16Rf+gCgDQooooAy/EP8AyA7n/drwd/8AWN9TXvOvqW0W5CjJK9K8NeyufMb9w/U9qLjSb2K1FT/Yrn/ng/5UfYrn/ng/5UrofJLsQUVP9iuf+eD/AJUfYrn/AJ4P+VF0HJLsQUVP9iuf+eD/AJUfYrn/AJ4P+VF0HJLsQUVP9iuf+eD/AJUfYrn/AJ4P+VF0HJLsQUVP9iuf+eD/AJUfYrn/AJ4P+VF0HJLsQUVP9iuf+eD/AJUfYrn/AJ4P+VF0HJLsQUVP9iuf+eD/AJUfYrn/AJ4P+VF0HJLsQUVP9iuf+eD/AJUfYrn/AJ4P+VF0HJLsQUVP9iuf+eD/AJUfYrn/AJ4P+VF0HJLsQUVP9iuf+eD/AJUfYrn/AJ4P+VF0HJLsQUVP9iuf+eD/AJUfYrn/AJ4P+VF0HJLsQUVP9iuf+eD/AJUfYrn/AJ4P+VF0HJLsQUVP9iuf+eD/AJUfYrn/AJ4P+VF0HJLsQUVP9iuf+eD/AJUfYrn/AJ4P+VF0HJLsQUVP9iuf+eD/AJUfYrn/AJ4P+VF0HJLsQUVP9iuf+eD/AJUfYrn/AJ4P+VF0HJLsQUVP9iuf+eD/AJUfYrn/AJ4P+VF0HJLsQUVP9iuf+eD/AJUfYrn/AJ4P+VF0HJLsQUVP9iuf+eD/AJUfYrn/AJ4P+VF0HJLsQUVP9iuf+eD/AJUfYrn/AJ4P+VF0HJLsQUVP9iuf+eD/AJUfYrn/AJ4P+VF0HJLsQUVP9iuf+eD/AJUfYrn/AJ4P+VF0HJLsQUVP9iuf+eD/AJUfYrn/AJ4P+VF0HJLsQUVP9iuf+eD/AJUfYrn/AJ4P+VF0HJLsQUVP9iuf+eD/AJUfYrn/AJ4P+VF0HJLsQUVP9iuf+eD/AJUfYrn/AJ4P+VF0HJLsQUVP9iuf+eD/AJUfYrn/AJ4P+VF0HJLsQUVP9iuf+eD/AJUfYrn/AJ4P+VF0HJLsQUVP9iuf+eD/AJUfYrn/AJ4P+VF0HJLsQUVP9iuf+eD/AJUfYrn/AJ4P+VF0HJLsQUVP9iuf+eD/AJUfYrn/AJ4P+VF0HJLsQUVP9iuf+eD/AJUfYrn/AJ4P+VF0HJLsQUVP9iuf+eD/AJUfYrn/AJ4P+VF0HJLsepfDj/kDv9a7WuM+HcTxaQ4kQqc967OmTsFFFFAHh+vf8jDqf/X3L/6Gaz60Ne/5GHU/+vuX/wBDNZ9ABRRRQAUUUUAFFFFABXuGg/8AIvaZ/wBekX/oArw+vcNB/wCRe0z/AK9Iv/QBQBoUUUUARXIDQMCMjFc+bWDJ/cp/3zXQz/6lqwz1rkxG6PfydJwlch+ywf8APFP++aPssH/PFP8AvmpqK57s9jlXYh+ywf8APFP++aPssH/PFP8AvmpqKLsOVdiH7LB/zxT/AL5o+ywf88U/75qaii7DlXYh+ywf88U/75o+ywf88U/75qaii7DlXYh+ywf88U/75o+ywf8APFP++amoouw5V2IfssH/ADxT/vmj7LB/zxT/AL5qaii7DlXYh+ywf88U/wC+aPssH/PFP++amoouw5V2IfssH/PFP++aPssH/PFP++amoouw5V2IfssH/PFP++aPssH/ADxT/vmpqKLsOVdiH7LB/wA8U/75o+ywf88U/wC+amoouw5V2IfssH/PFP8Avmj7LB/zxT/vmpqKLsOVdiH7LB/zxT/vmj7LB/zxT/vmpqKLsOVdiH7LB/zxT/vmj7LB/wA8U/75qaii7DlXYh+ywf8APFP++aPssH/PFP8AvmpqKLsOVdiH7LB/zxT/AL5o+ywf88U/75qaii7DlXYh+ywf88U/75o+ywf88U/75qaii7DlXYh+ywf88U/75o+ywf8APFP++amoouw5V2IfssH/ADxT/vmj7LB/zxT/AL5qaii7DlXYh+ywf88U/wC+aPssH/PFP++amoouw5V2IfssH/PFP++aPssH/PFP++amoouw5V2IfssH/PFP++aPssH/ADxT/vmpqKLsOVdiH7LB/wA8U/75o+ywf88U/wC+amoouw5V2IfssH/PFP8Avmj7LB/zxT/vmpqKLsOVdiH7LB/zxT/vmj7LB/zxT/vmpqKLsOVdiH7LB/zxT/vmj7LB/wA8U/75qaii7DlXYh+ywf8APFP++aPssH/PFP8AvmpqKLsOVdiH7LB/zxT/AL5o+ywf88U/75qaii7DlXYh+ywf88U/75o+ywf88U/75qaii7DlXYh+ywf88U/75o+ywf8APFP++amoouw5V2IfssH/ADxT/vmj7LB/zxT/AL5qaii7DlXYh+ywf88U/wC+aPssH/PFP++amoouw5V2IfssH/PFP++aPssH/PFP++amoouw5V2IfssH/PFP++aPssH/ADxT/vmpqKLsOVdjS0yNI4SEUKPYVeqnp/8AqjVyu+l8CPksb/vEgooorQ5Tw/Xv+Rh1P/r7l/8AQzWfWhr3/Iw6n/19y/8AoZrPoAKKKKACiiigAooooAK9w0H/AJF7TP8Ar0i/9AFeH17hoP8AyL2mf9ekX/oAoA0KKKKAI5hmJgKxzC+elbT/AHTVSvPxlRxkrHt5VNxhIoeS/pR5L+lX6K4vbs9b2zKHkv6UeS/pV+ij27D2zKHkv6UeS/pV+ij27D2zKHkv6UeS/pV+ij27D2zKHkv6UeS/pV+ij27D2zKHkv6UeS/pV+ij27D2zKHkv6UeS/pV+ij27D2zKHkv6UeS/pV+ij27D2zKHkv6UeS/pV+ij27D2zKHkv6UeS/pV+ij27D2zKHkv6UeS/pV+ij27D2zKHkv6UeS/pV+ij27D2zKHkv6UeS/pV+ij27D2zKHkv6UeS/pV+ij27D2zKHkv6UeS/pV+ij27D2zKHkv6UeS/pV+ij27D2zKHkv6UeS/pV+ij27D2zKHkv6UeS/pV+ij27D2zKHkv6UeS/pV+ij27D2zKHkv6UeS/pV+ij27D2zKHkv6UeS/pV+ij27D2zKHkv6UeS/pV+ij27D2zKHkv6UeS/pV+ij27D2zKHkv6UeS/pV+ij27D2zKHkv6UeS/pV+ij27D2zKHkv6UeS/pV+ij27D2zKHkv6UeS/pV+ij27D2zKHkv6UeS/pV+ij27D2zKHkv6UeS/pV+ij27D2zKHkv6UeS/pV+ij27D2zKHkv6UeS/pV+ij27D2zKHkv6UeS/pV+ij27D2zKHkv6UeS/pV+ij27D2zHWKlYiDVuooPu1LXsUHemmfL4x3ryYUUUVqcx4fr3/ACMOp/8AX3L/AOhms+tDXv8AkYdT/wCvuX/0M1n0AFFFFABRRRQAUUUUAFe4aD/yL2mf9ekX/oArw+vcNB/5F7TP+vSL/wBAFAGhRRRQA1/umqlW3+6aq4ryswdpI9fLZJRdxKKXFGK8/mR6XPHuJRS4oxRzIOePcSilxRijmQc8e4lFLijFHMg549xKKXFGKOZBzx7iUUuKMUcyDnj3EopcUYo5kHPHuJRS4oxRzIOePcSilxRijmQc8e4lFLijFHMg549xKKXFGKOZBzx7iUUuKMUcyDnj3EopcUYo5kHPHuJRS4oxRzIOePcSilxRijmQc8e4lFLijFHMg549xKKXFGKOZBzx7iUUuKMUcyDnj3EopcUYo5kHPHuJRS4oxRzIOePcSilxRijmQc8e4lFLijFHMg549xKKXFGKOZBzx7iUUuKMUcyDnj3EopcUYo5kHPHuJRS4oxRzIOePcSilxRijmQc8e4lFLijFHMg549xKKXFGKOZBzx7iUUuKMUcyDnj3EopcUYo5kHPHuJRS4oxRzIOePcSilxRijmQc8e5PB92paih+7Ute9hv4UT57FO9aQUUUVuc54fr3/Iw6n/19y/8AoZrPrQ17/kYdT/6+5f8A0M1n0AFFFFABRRRQAUUUUAFe4aD/AMi9pn/XpF/6AK8Pr3DQf+Re0z/r0i/9AFAGhRRRQAj/AHTVWrT/AHTVWvHzL40elgvhYUUUV5p2hRRRQAUUUUAFFFFABRRRQAUUUUAFFFFABRRRQAUUUUAFFFFABRRRQAUUUUAFFFFABRRRQAUUUUAFFFFABRRRQAUUUUAFFFFABRRRQAUUUUAFFFFABRRRQAUUUUAFFFFABRRRQAUUUUAFFFFABRRRQAUUUUAFFFFABRRRQAUUUUATw/dqSo4fu1JX0WF/gxPGxH8RhRRRXQYnh+vf8jDqf/X3L/6Gaz60Ne/5GHU/+vuX/wBDNZ9ABRRRQAUUUUAFFFFABXuGg/8AIvaZ/wBekX/oArw+vcNB/wCRe0z/AK9Iv/QBQBoUUUUAGN3FJ9mHrTh1qWvCzaTU42OijOUU7Mg+zD1o+zD1qeivJ55G3tp9yD7MPWj7MPWp6KOeQe2n3IPsw9aPsw9anoo55B7afcg+zD1o+zD1qeijnkHtp9yD7MPWj7MPWp6KOeQe2n3IPsw9aPsw9anoo55B7afcg+zD1o+zD1qeijnkHtp9yD7MPWj7MPWp6KOeQe2n3IPsw9aPsw9anoo55B7afcg+zD1o+zD1qeijnkHtp9yD7MPWj7MPWp6KOeQe2n3IPsw9aPsw9anoo55B7afcg+zD1o+zD1qeijnkHtp9yD7MPWj7MPWp6KOeQe2n3IPsw9aPsw9anoo55B7afcg+zD1o+zD1qeijnkHtp9yD7MPWj7MPWp6KOeQe2n3IPsw9aPsw9anoo55B7afcg+zD1o+zD1qeijnkHtp9yD7MPWj7MPWp6KOeQe2n3IPsw9aPsw9anoo55B7afcg+zD1o+zD1qeijnkHtp9yD7MPWj7MPWp6KOeQe2n3IPsw9aPsw9anoo55B7afcg+zD1o+zD1qeijnkHtp9yD7MPWj7MPWp6KOeQe2n3IPsw9aPsw9anoo55B7afcg+zD1o+zD1qeijnkHtp9yD7MPWj7MPWp6KOeQe2n3IPsw9aPsw9anoo55B7afcg+zD1o+zD1qeijnkHtp9yD7MPWj7MPWp6KOeQe2n3IPsw9aPsw9anoo55B7afchEfl8UU5+tNr6nBu9CJyTbcm2FFFFdRB4fr3/Iw6n/ANfcv/oZrPrQ17/kYdT/AOvuX/0M1n0AFFFFABRRRQAUUUUAFe4aD/yL2mf9ekX/AKAK8Pr3DQf+Re0z/r0i/wDQBQBoUUUUAKOtS1XclVJFVftMnrXj5lRlUlFozniY0dJGlRWb9pk9aPtMnrXmfVJkf2jT7GlRWb9pk9aPtMnrR9UmH9o0+xpUVm/aZPWj7TJ60fVJh/aNPsaVFZv2mT1o+0yetH1SYf2jT7GlRWb9pk9aPtMnrR9UmH9o0+xpUVm/aZPWj7TJ60fVJh/aNPsaVFZv2mT1o+0yetH1SYf2jT7GlRWb9pk9aPtMnrR9UmH9o0+xpUVm/aZPWj7TJ60fVJh/aNPsaVFZv2mT1o+0yetH1SYf2jT7GlRWb9pk9aPtMnrR9UmH9o0+xpUVm/aZPWj7TJ60fVJh/aNPsaVFZv2mT1o+0yetH1SYf2jT7GlRWb9pk9aPtMnrR9UmH9o0+xpUVm/aZPWj7TJ60fVJh/aNPsaVFZv2mT1o+0yetH1SYf2jT7GlRWb9pk9aPtMnrR9UmH9o0+xpUVm/aZPWj7TJ60fVJh/aNPsaVFZv2mT1o+0yetH1SYf2jT7GlRWb9pk9aPtMnrR9UmH9o0+xpUVm/aZPWj7TJ60fVJh/aNPsaVFZv2mT1o+0yetH1SYf2jT7GlRWb9pk9aPtMnrR9UmH9o0+xpUVm/aZPWj7TJ60fVJh/aNPsaVFZv2mT1o+0yetH1SYf2jT7GlRWb9pk9aPtMnrR9UmH9o0+xpUVm/aZPWj7TJ60fVJh/aNPsaVFZv2mT1o+0yetH1SYf2jT7GlRWb9pk9aPtMnrR9UmH9o0+xpUVm/aZPWj7TJ60fVJh/aNPsaVFZv2mT1o+0yetH1SYf2jT7GlRWb9pk9aPtMnrR9UmH9o0+xpUVm/aZPWj7TJ60fVJh/aNPsXn602ooZGkXLVLX0eFi40Ypm0Zqa5l1CiiiugZ4fr3/Iw6n/ANfcv/oZrPrQ17/kYdT/AOvuX/0M1n0AFFFFABRRRQAUUUUAFe4aD/yL2mf9ekX/AKAK8Pr3DQf+Re0z/r0i/wDQBQBoUUUUAMk/1ZqhV+X/AFZrP3L/AHh+dcOLTbVjzcd8SFopNy/3h+dG5f7w/OuTlfY4BaKTcv8AeH50bl/vD86OV9gFopNy/wB4fnRuX+8Pzo5X2AWik3L/AHh+dG5f7w/OjlfYBaKTcv8AeH50bl/vD86OV9gFopNy/wB4fnRuX+8Pzo5X2AWik3L/AHh+dG5f7w/OjlfYBaKTcv8AeH50bl/vD86OV9gFopNy/wB4fnRuX+8Pzo5X2AWik3L/AHh+dG5f7w/OjlfYBaKTcv8AeH50bl/vD86OV9gFopNy/wB4fnRuX+8Pzo5X2AWik3L/AHh+dG5f7w/OjlfYBaKTcv8AeH50bl/vD86OV9gFopNy/wB4fnRuX+8Pzo5X2AWik3L/AHh+dG5f7w/OjlfYBaKTcv8AeH50bl/vD86OV9gFopNy/wB4fnRuX+8Pzo5X2AWik3L/AHh+dG5f7w/OjlfYBaKTcv8AeH50bl/vD86OV9gFopNy/wB4fnRuX+8Pzo5X2AWik3L/AHh+dG5f7w/OjlfYBaKTcv8AeH50bl/vD86OV9gFopNy/wB4fnRuX+8Pzo5X2AWik3L/AHh+dG5f7w/OjlfYBaKTcv8AeH50bl/vD86OV9gFopNy/wB4fnRuX+8Pzo5X2AWik3L/AHh+dG5f7w/OjlfYBaKTcv8AeH50bl/vD86OV9gFopNy/wB4fnRuX+8Pzo5X2AWik3L/AHh+dG5f7w/OjlfYBaKTcv8AeH50bl/vD86OV9gFopNy/wB4fnRuX+8Pzo5X2AuW33DU9QWpBTg1PXqUfgR7eH/hoKKKK1Njw/Xv+Rh1P/r7l/8AQzWfWhr3/Iw6n/19y/8AoZrPoAKKKKACiiigAooooAK9w0H/AJF7TP8Ar0i/9AFeH17hoP8AyL2mf9ekX/oAoA0KKKKAILwkWrkelciZpMn5zXW3v/HpJ9K48/eP1r3sohGUJXVzCqlcd50n980edJ/fNMor2PZU/wCVfcY2Q/zpP75o86T++aZRR7Kn/KvuCyH+dJ/fNHnSf3zTKKPZU/5V9wWQ/wA6T++aPOk/vmmUUeyp/wAq+4LIf50n980edJ/fNMoo9lT/AJV9wWQ/zpP75o86T++aZRR7Kn/KvuCyH+dJ/fNHnSf3zTKKPZU/5V9wWQ/zpP75o86T++aZRR7Kn/KvuCyH+dJ/fNHnSf3zTKKPZU/5V9wWQ/zpP75o86T++aZRR7Kn/KvuCyH+dJ/fNHnSf3zTKKPZU/5V9wWQ/wA6T++aPOk/vmmUUeyp/wAq+4LIf50n980edJ/fNMoo9lT/AJV9wWQ/zpP75o86T++aZRR7Kn/KvuCyH+dJ/fNHnSf3zTKKPZU/5V9wWQ/zpP75o86T++aZRR7Kn/KvuCyH+dJ/fNHnSf3zTKKPZU/5V9wWQ/zpP75o86T++aZRR7Kn/KvuCyH+dJ/fNHnSf3zTKKPZU/5V9wWQ/wA6T++aPOk/vmmUUeyp/wAq+4LIf50n980edJ/fNMoo9lT/AJV9wWQ/zpP75o86T++aZRR7Kn/KvuCyH+dJ/fNHnSf3zTKKPZU/5V9wWQ/zpP75o86T++aZRR7Kn/KvuCyH+dJ/fNHnSf3zTKKPZU/5V9wWQ/zpP75o86T++aZRR7Kn/KvuCyH+dJ/fNHnSf3zTKKPZU/5V9wWQ/wA6T++aPOk/vmmUUeyp/wAq+4LIf50n980edJ/fNMoo9lT/AJV9wWQ/zpP75o86T++aZRR7Kn/KvuCyH+dJ/fNHnSf3zTKKPZU/5V9wWQ/zpP75o86T++aZRR7Kn/KvuCyH+dJ/fNHnSf3zTKKPZU/5V9wWR0uiMzWxLHNalZWhf8exrVr5PGpKvJI6ofCgooorlLPD9e/5GHU/+vuX/wBDNZ9aGvf8jDqf/X3L/wChms+gAooooAKKKKACiiigAr3DQf8AkXtM/wCvSL/0AV4fXuGg/wDIvaZ/16Rf+gCgDQooooAq6g6x2UjMcACuFbVLPcf3w612PiH/AJAlz/u14O7HzG5PU967sJjpYZNJXuRKHMejf2pZ/wDPYUf2pZ/89hXm+5vU/nRub1P511/2zP8AlRPskekf2pZ/89hR/aln/wA9hXm+5vU/nRub1P50f2zP+VB7JHpH9qWf/PYUf2pZ/wDPYV5vub1P50bm9T+dH9sz/lQeyR6R/aln/wA9hR/aln/z2Feb7m9T+dG5vU/nR/bM/wCVB7JHpH9qWf8Az2FH9qWf/PYV5vub1P50bm9T+dH9sz/lQeyR6R/aln/z2FH9qWf/AD2Feb7m9T+dG5vU/nR/bM/5UHskekf2pZ/89hR/aln/AM9hXm+5vU/nRub1P50f2zP+VB7JHpH9qWf/AD2FH9qWf/PYV5vub1P50bm9T+dH9sz/AJUHskekf2pZ/wDPYUf2pZ/89hXm+5vU/nRub1P50f2zP+VB7JHpH9qWf/PYUf2pZ/8APYV5vub1P50bm9T+dH9sz/lQeyR6R/aln/z2FH9qWf8Az2Feb7m9T+dG5vU/nR/bM/5UHskekf2pZ/8APYUf2pZ/89hXm+5vU/nRub1P50f2zP8AlQeyR6R/aln/AM9hR/aln/z2Feb7m9T+dG5vU/nR/bM/5UHskekf2pZ/89hR/aln/wA9hXm+5vU/nRub1P50f2zP+VB7JHpH9qWf/PYUf2pZ/wDPYV5vub1P50bm9T+dH9sz/lQeyR6R/aln/wA9hR/aln/z2Feb7m9T+dG5vU/nR/bM/wCVB7JHpH9qWf8Az2FH9qWf/PYV5vub1P50bm9T+dH9sz/lQeyR6R/aln/z2FH9qWf/AD2Feb7m9T+dG5vU/nR/bM/5UHskekf2pZ/89hR/aln/AM9hXm+5vU/nRub1P50f2zP+VB7JHpH9qWf/AD2FH9qWf/PYV5vub1P50bm9T+dH9sz/AJUHskekf2pZ/wDPYUf2pZ/89hXm+5vU/nRub1P50f2zP+VB7JHpH9qWf/PYUf2pZ/8APYV5vub1P50bm9T+dH9sz/lQeyR6R/aln/z2FH9qWf8Az2Feb7m9T+dG5vU/nR/bM/5UHskekf2pZ/8APYUf2pZ/89hXm+5vU/nRub1P50f2zP8AlQeyR6R/aln/AM9hR/aln/z2Feb7m9T+dG5vU/nR/bM/5UHskekf2pZ/89hR/aln/wA9hXm+5vU/nRub1P50f2zP+VB7JHpH9qWf/PYUf2pZ/wDPYV5vub1P50bm9T+dH9sz/lQeyR6R/aln/wA9hR/aln/z2Feb7m9T+dG5vU/nR/bM/wCVB7JHpH9qWf8Az2FH9qWf/PYV5vub1P50bm9T+dH9sz/lQeyR6R/aln/z2FH9qWf/AD2Feb7m9T+dG5vU/nR/bM/5UHskekf2pZ/89hR/aln/AM9hXm+5vU/nRub1P50f2zP+VB7JHpH9qWf/AD2FH9qWf/PYV5vub1P50bm9T+dH9sz/AJUHskekf2pZ/wDPYUf2pZ/89hXm+5vU/nRub1P50f2zP+VB7JHufhy4juLQtGwYVtVxXw4JOjvn1rta8utVdWbm+polZWCiiishnh+vf8jDqf8A19y/+hms+tDXv+Rh1P8A6+5f/QzWfQAUUUUAFFFFABRRRQAV7hoP/IvaZ/16Rf8AoArw+vcNB/5F7TP+vSL/ANAFAGhRRRQBl+If+QHc/wC7Xg7/AOsb6mvePEP/ACA7n/drwd/9Y31NADaKKKACiiigAooooAKKKKACiiigAooooAKKKKACiiigAooooAKKKKACiiigAooooAKKKKACiiigAooooAKKKKACiiigAooooAKKKKACiiigAooooAKKKKACiiigAooooAKKKKACiiigAooooAKKKKACiiigAooooAKKKKACiiigAooooA9Z+HH/ACB3+tdrXFfDj/kDv9a7WgAooooA8P17/kYdT/6+5f8A0M1n1oa9/wAjDqf/AF9y/wDoZrPoAKKKKACiiigAooooAK9w0H/kXtM/69Iv/QBXh9e4aD/yL2mf9ekX/oAoA0KKKKAMvxD/AMgO5/3a8Hf/AFjfU17x4h/5Adz/ALteDv8A6xvqaAG0UUUAFFFFABRRRQAUUUUAFFFFABRRRQAUUUUAFFFFABRRRQAUUUUAFFFFABRRRQAUUUUAFFFFABRRRQAUUUUAFFFFABRRRQAUUUUAFFFFABRRRQAUUUUAFFFFABRRRQAUUUUAFFFFABRRRQAUUUUAFFFFABRRRQAUUUUAFFFFABRRRQB6z8OP+QO/1rta4r4cf8gd/rXa0AFFFFAHh+vf8jDqf/X3L/6Gaz60Ne/5GHU/+vuX/wBDNZ9ABRRRQAUUUUAFFFFABXuGg/8AIvaZ/wBekX/oArw+vcNB/wCRe0z/AK9Iv/QBQBoUUUUAZfiH/kB3P+7Xg7/6xvqa948Q/wDIDuf92vB3/wBY31NADaKKKACiiigAooooAKKKKACiiigAooooAKKKKACiiigAooooAKKKKACiiigAooooAKKKKACiiigAooooAKKKKACiiigAooooAKKKKACiiigAooooAKKKKACiiigAooooAKKKKACiiigAooooAKKKKACiiigAooooAKKKKACiiigAooooA9Z+HH/IHf612tcV8OP+QO/1rtaACiiigDw/Xv8AkYdT/wCvuX/0M1n1oa9/yMOp/wDX3L/6Gaz6ACiiigAooooAKKKKACvcNB/5F7TP+vSL/wBAFeH17hoP/IvaZ/16Rf8AoAoA0KKKKAMvxD/yA7n/AHa8Hf8A1jfU17x4h/5Adz/u14O/+sb6mgBtFFFABRRRQAUUUUAFFFFABRRRQAUUUUAFFFFABRRRQAUUUUAFFFFABRRRQAUUUUAFFFFABRRRQAUUUUAFFFFABRRRQAUUUUAFFFFABRRRQAUUUUAFFFFABRRRQAUUUUAFFFFABRRRQAUUUUAFFFFABRRRQAUUUUAFFFFABRRRQAUUUUAes/Dj/kDv9a7WuK+HH/IHf612tABRRRQB4fr3/Iw6n/19y/8AoZrPrQ17/kYdT/6+5f8A0M1n0AFFFFABRRRQAUUUUAFe4aD/AMi9pn/XpF/6AK8Pr3DQf+Re0z/r0i/9AFAGhRRRQBl+If8AkB3P+7Xg7/6xvqa948Q/8gO5/wB2vB3/ANY31NADaKKKACiiigAooooAKKKKACiiigAooooAKKKKACiiigAooooAKKKKACiiigAooooAKKKKACiiigAooooAKKKKACiiigAooooAKKKKACiiigAooooAKKKKACiiigAooooAKKKKACiiigAooooAKKKKACiiigAooooAKKKKACiiigAooooA9Z+HH/IHf612tcV8OP8AkDv9a7WgAooooA8P17/kYdT/AOvuX/0M1n1oa9/yMOp/9fcv/oZrPoAKKKKACiiigAooooAK9w0H/kXtM/69Iv8A0AV4fXuGg/8AIvaZ/wBekX/oAoA0KKKKAMvxD/yA7n/drwd/9Y31Ne8eIf8AkB3P+7Xg7/6xvqaAG0UUUAFFFFABRRRQAUUUUAFFFFABRRRQAUUUUAFFFFABRRRQAUUUUAFFFFABRRRQAUUUUAFFFFABRRRQAUUUUAFFFFABRRRQAUUUUAFFFFABRRRQAUUUUAFFFFABRRRQAUUUUAFFFFABRRRQAUUUUAFFFFABRRRQAUUUUAFFFFABRRRQB6z8OP8AkDv9a7WuK+HH/IHf612tABRRRQB4fr3/ACMOp/8AX3L/AOhms+tDXv8AkYdT/wCvuX/0M1n0AFFFFABRRRQAUUUUAFe4aD/yL2mf9ekX/oArw+vcNB/5F7TP+vSL/wBAFAGhRRRQBl+If+QHc/7teDv/AKxvqa948Q/8gO5/3a8Hf/WN9TQA2iiigAooooAKKKKACiiigAooooAKKKKACiiigAooooAKKKKACiiigAooooAKKKKACiiigAooooAKKKKACiiigAooooAKKKKACiiigAooooAKKKKACiiigAooooAKKKKACiiigAooooAKKKKACiiigAooooAKKKKACiiigAooooAKKKKAPWfhx/yB3+tdrXFfDj/kDv8AWu1oAKKKKAPD9e/5GHU/+vuX/wBDNZ9aGvf8jDqf/X3L/wChms+gAooooAKKKKACiiigAr3DQf8AkXtM/wCvSL/0AV4fXuGg/wDIvaZ/16Rf+gCgDQooooAy/EP/ACA7n/drwd/9Y31Ne8eIf+QHc/7teDv/AKxvqaAG0UUUAFFFFABRRRQAUUUUAFFFFABRRRQAUUUUAFFFFABRRRQAUUUUAFFFFABRRRQAUUUUAFFFFABRRRQAUUUUAFFFFABRRRQAUUUUAFFFFABRRRQAUUUUAFFFFABRRRQAUUUUAFFFFABRRRQAUUUUAFFFFABRRRQAUUUUAFFFFABRRRQB6z8OP+QO/wBa7WuK+HH/ACB3+tdrQAUUUUAeH69/yMOp/wDX3L/6Gaz60Ne/5GHU/wDr7l/9DNZ9ABRRRQAUUUUAFFFFABXuGg/8i9pn/XpF/wCgCvD69w0H/kXtM/69Iv8A0AUAaFFFFAGX4h/5Adz/ALteDv8A6xvqa948Q/8AIDuf92vB3/1jfU0ANooooAKKKKACiiigAooooAKKKKACiiigAooooAKKKKACiiigAooooAKKKKACiiigAooooAKKKKACiiigAooooAKKKKACiiigAooooAKKKKACiiigAooooAKKKKACiiigAooooAKKKKACiiigAooooAKKKKACiiigAooooAKKKKACiiigD1n4cf8AIHf612tcV8OP+QO/1rtaACiiigDw/Xv+Rh1P/r7l/wDQzWfWhr3/ACMOp/8AX3L/AOhms+gAooooAKKKKACiiigAr3DQf+Re0z/r0i/9AFeH17hoP/IvaZ/16Rf+gCgDQooooAy/EP8AyA7n/drwd/8AWN9TXvHiH/kB3P8Au14O/wDrG+poAbRRRQAUUUUAFFFFABRRRQAUUUUAFFFFABRRRQAUUUUAFFFFABRRRQAUUUUAFFFFABRRRQAUUUUAFFFFABRRRQAUUUUAFFFFABRRRQAUUUUAFFFFABRRRQAUUUUAFFFFABRRRQAUUUUAFFFFABRRRQAUUUUAFFFFABRRRQAUUUUAFFFFAHrPw4/5A7/Wu1rivhx/yB3+tdrQAUUUUAeH69/yMOp/9fcv/oZrPrQ17/kYdT/6+5f/AEM1n0AFFFFABRRRQAUUUUAFe4aD/wAi9pn/AF6Rf+gCvD69w0H/AJF7TP8Ar0i/9AFAGhRRRQBl+If+QHc/7teDv/rG+pr3jxD/AMgO5/3a8Hf/AFjfU0ANooooAKKKKACiiigAooooAKKKKACiiigAooooAKKKKACiiigAooooAKKKKACiiigAooooAKKKKACiiigAooooAKKKKACiiigAooooAKKKKACiiigAooooAKKKKACiiigAooooAKKKKACiiigAooooAKKKKACiiigAooooAKKKKACiiigD1n4cf8gd/rXa1xXw4/5A7/Wu1oAKKKKAPD9e/wCRh1P/AK+5f/QzWfWhr3/Iw6n/ANfcv/oZrPoAKKKKACiiigAooooAK9w0H/kXtM/69Iv/AEAV4fXuGg/8i9pn/XpF/wCgCgDQooooAy/EP/IDuf8Adrwd/wDWN9TXvHiH/kB3P+7Xg7/6xvqaAG0UUUAFFFFABRRRQAUUUUAFFFFABRRRQAUUUUAFFFFABRRRQAUUUUAFFFFABRRRQAUUUUAFFFFABRRRQAUUUUAFFFFABRRRQAUUUUAFFFFABRRRQAUUUUAFFFFABRRRQAUUUUAFFFFABRRRQAUUUUAFFFFABRRRQAUUUUAFFFFABRRRQB6z8OP+QO/1rta4r4cf8gd/rXa0AFFFFAHh+vf8jDqf/X3L/wChms+tDXv+Rh1P/r7l/wDQzWfQAUUUUAFFFFABRRRQAV7hoP8AyL2mf9ekX/oArw+vcNB/5F7TP+vSL/0AUAaFFFFAGX4h/wCQHc/7teDv/rG+pr3jxD/yA7n/AHa8Hf8A1jfU0ANooooAKKKKACiiigAooooAKKKKACiiigAooooAKKKKACiiigAooooAKKKKACiiigAooooAKKKKACiiigAooooAKKKKACiiigAooooAKKKKACiiigAooooAKKKKACiiigAooooAKKKKACiiigAooooAKKKKACiiigAooooAKKKKACiiigD1n4cf8gd/rXa1xXw4/wCQO/1rtaACiiigDw/Xv+Rh1P8A6+5f/QzWfWhr3/Iw6n/19y/+hms+gAooooAKKKKACiiigAr3DQf+Re0z/r0i/wDQBXh9e4aD/wAi9pn/AF6Rf+gCgDQooooAy/EP/IDuf92vB3/1jfU17x4h/wCQHc/7teDv/rG+poAbRRRQAUUUUAFFFFABRRRQAUUUUAFFFFABRRRQAUUUUAFFFFABRRRQAUUUUAFFFFABRRRQAUUUUAFFFFABRRRQAUUUUAFFFFABRRRQAUUUUAFFFFABRRRQAUUUUAFFFFABRRRQAUUUUAFFFFABRRRQAUUUUAFFFFABRRRQAUUUUAFFFFAHrPw4/wCQO/1rta4r4cf8gd/rXa0AFFFFAHh+vf8AIw6n/wBfcv8A6Gaz60Ne/wCRh1P/AK+5f/QzWfQAUUUUAFFFFABRRRQAV7hoP/IvaZ/16Rf+gCvD69w0H/kXtM/69Iv/AEAUAaFFFFAGX4h/5Adz/u14O/8ArG+pr3jxD/yA7n/drwd/9Y31NADaKKKACiiigAooooAKKKKACiiigAooooAKKKKACiiigAooooAKKKKACiiigAooooAKKKKACiiigAooooAKKKKACiiigAooooAKKKKACiiigAooooAKKKKACiiigAooooA3PDuix6xM6SNt21J4i0KLR9nlvu3VoeBP+PqX/Pap/Hn/ACxrDmftbHqqhT+pe0tqcRRRRW55QUUUUAFFFFABRRRQAUUUUAFFFFABRRRQAUUUUAes/Dj/AJA7/Wu1rivhx/yB3+tdrQAUUUUAeH69/wAjDqf/AF9y/wDoZrPrQ17/AJGHU/8Ar7l/9DNZ9ABRRRQAUUUUAFFFFABXuGg/8i9pn/XpF/6AK8Pr3DQf+Re0z/r0i/8AQBQBoUUUUAZfiH/kB3P+7Xg7/wCsb6mvePEP/IDuf92vB3/1jfU0ANooooAKKKKACiiigAooooAKKKKACiiigAooooAKKKKACiiigAooooAKKKKACiiigAooooAKKKKACiiigAooooAKKKKACiiigAooooAKKKKACiiigAooooAKKKKACiiigC/purXGluzwHBPXmnalrNzqm37Qc7enNZ1FLlV7mntZ8nJfQKKKKZmFFFFABRRRQAUUUUAFFFFABRRRQAUUUUAFFFFAHrPw4/5A7/Wu1rivhx/yB3+tdrQAUUUUAeH69/yMOp/9fcv/AKGaz60Ne/5GHU/+vuX/ANDNZ9ABRRRQAUUUUAFFFFABXuGg/wDIvaZ/16Rf+gCvD69w0H/kXtM/69Iv/QBQBoUUUUAZfiH/AJAdz/u14O/+sb6mvePEP/IDuf8Adrwd/wDWN9TQA2iiigAooooAKKKKACiiigAooooAKKKKACiiigAooooAKKKKACiiigAooooAKKKKACiiigAooooAKKKKACiiigAooooAKKKKACiiigAooooAKKKKACiiigAooooAKKKKACiiigAooooAKKKKACiiigAooooAKKKKACiiigAooooAKKKKAPWfhx/yB3+tdrXFfDj/AJA7/Wu1oAKKKKAPD9e/5GHU/wDr7l/9DNZ9aGvf8jDqf/X3L/6Gaz6ACiiigAooooAKKKKACvcNB/5F7TP+vSL/ANAFeH17hoP/ACL2mf8AXpF/6AKANCiiigDL8Q/8gO5/3a8Hf/WN9TXvHiH/AJAdz/u14O/+sb6mgBtFFFABRRRQAUUUUAFFFFABRRRQAUUUUAFFFFABRRRQAUUUUAFFFFABRRRQAUUUUAFFFFABRRRQAUUUUAFFFFABRRRQAUUUUAFFFFABRRRQAUUUUAFFFFABRRRQAUUUUAFFFFABRRRQAUUUUAFFFFABRRRQAUUUUAFFFFABRRRQAUUUUAes/Dj/AJA7/Wu1rivhx/yB3+tdrQAUUUUAeH69/wAjDqf/AF9y/wDoZrPrQ17/AJGHU/8Ar7l/9DNZ9ABRRRQAUUUUAFFFFABXuGg/8i9pn/XpF/6AK8Pr3DQf+Re0z/r0i/8AQBQBoUUUUAZfiH/kB3P+7Xg7/wCsb6mvePEP/IDuf92vB3/1jfU0ANooooAKKKKACiiigAooooAKKKKACiiigAooooAKKKKACiiigAooooAKKKKACiiigAooooAKKKKACiiigAooooAKKKKACiiigAooooAKKKKACiiigAooooAKKKKACiiigAooooAKKKKACiiigAooooAKKKKACiiigAooooAKKKKACiiigD1n4cf8gd/rXa1xXw4/5A7/AFrtaACiiigDw/Xv+Rh1P/r7l/8AQzWfWhr3/Iw6n/19y/8AoZrPoAKKKKACiiigAooooAK9w0H/AJF7TP8Ar0i/9AFeH17hoP8AyL2mf9ekX/oAoA0KKKKAMvxD/wAgO5/3a8Hf/WN9TXvHiH/kB3P+7Xg7/wCsb6mgBtFFFABRRRQAUUUUAFFFFABRRRQAUUUUAFFFFABRRRQAUUUUAFFFFABRRRQAUUUUAFFFFABRRRQAUUUUAFFFFABRRRQAUUUUAFFFFABRRRQAUUUUAFFFFABRRRQAUUUUAFFFFABRRRQAUUUUAFFFFABRRRQAUUUUAFFFFABRRRQAUUUUAes/Dj/kDv8AWu1rivhx/wAgd/rXa0AFFFFAHh+vf8jDqf8A19y/+hms+tDXv+Rh1P8A6+5f/QzWfQAUUUUAFFFFABRRRQAV7hoP/IvaZ/16Rf8AoArw+vcNB/5F7TP+vSL/ANAFAGhRRRQBl+If+QHc/wC7Xg7/AOsb6mvePEP/ACA7n/drwd/9Y31NADaKKKACiiigAooooAKKKKACiiigAooooAKKKKACiiigAooooAKKKKACiiigAooooAKKKKACiiigAooooAKKKKACiiigAooooAKKKKACiiigAooooAKKKKACiiigAooooAKKKKACiiigAooooAKKKKACiiigAooooAKKKKACiiigAooooA9Z+HH/ACB3+tdrXFfDj/kDv9a7WgAooooA8P17/kYdT/6+5f8A0M1n1oa9/wAjDqf/AF9y/wDoZrPoAKKKKACiiigAooooAK9w0H/kXtM/69Iv/QBXh9e3aE6jw9pnP/LpF/6AKBNpbmlRTd6+tG9fWgXPHuZviH/kB3P+7Xg7/wCsb6mvd/EDqdEuef4a8If/AFjfU0DTT2G0UUUDCiiigAooooAKKKKACiiigAooooAKKKKACiiigAooooAKKKKACiiigAooooAKKKKACiiigAooooAKKKKACiiigAooooAKKKKACiiigAooooAKKKKACiiigAooooAKKKKACiiigAooooAKKKKACiiigAooooAKKKKACipYbeW4bbEhY+gqx/ZN9/z7vSuilCT1SKVFXf7Jvv8An3ej+yb7/n3ejmQ/ZT7M9M+HH/IHf612tcZ4Aje00p0nUo2ehrr/ADo/74o5kHsp9mSUVH50f98UedH/AHxRzIPZT7M8T17/AJGHU/8Ar7l/9DNZ9aGukHxBqRHQ3Uv/AKGaz6ZAUUUUAFFFFABRRRQAV7Hop/4kOnf9e0f/AKCK8cr2PRf+QDp3/XtH/wCgimjzsx+GJeyfWjJ9aKKZ5NzO10/8Sa4/3a8Tf77fU17Zrv8AyBrj/drxN/vt9TSZ62XfCxtFFFI9EKKKKACiiigAooooAKKKKACiiigAooooAKKKKACiiigAooooAKKKKACiiigAooooAKKKKACiiigAooooAKKKKACiiigAooooAKKKKACiiigAooooAKKKKACiiigAooooAKKKKACiiigAooooAKKKKACiiigAooooA6jwSAdSbIB4716J5af3F/KvM/Cl/BYXzSTttXFdr/wk+mf89q460W5aH0WW1acaFpNGv5af3F/Kjy0/uL+VZH/CT6Z/z2o/4SfTP+e1Zckux6H1ij/MjZAC/dGPpS5Pqaq2d9Bfx+ZA25as1LujWLjJXQuT6mjJ9TSUUDsjyvVv+Qzff9fEn/oRqnVzVv8AkM33/XxJ/wChGqdelHZHxdX45erCiiimZhRRRQAUUUUAFex6L/yAdO/69o//AEEV45VhfEWpQIIo58Ig2qPQDig5cVQdZJJntNFeMf8ACT6r/wA/Bo/4SfVf+fg07nF/Z8+56trv/IGuP92vE3++31NaU3iHUp4jHJPlT1FZZ5OaR24Wg6KabCiiig6gooooAKKKKACiiigAooooAKKKKACiiigAooooAKKKKACiiigAooooAKKKKACiiigAooooAKKKKACiiigAooooAKKKKACiiigAooooAKKKKACiiigAooooAKKKKACiiigAooooAKKKKACiiigAooooAKKKKACiiigAooooAKKKKAOx8Ma9Z6bZNHO2GPvW7/wl+mf3/wBa8xorGVGMndnoUsyrUoKEbWR6d/wl+mf3/wBaP+Ev0z+/+teY0Uvq8TT+1q/ka1/MtxqNzOn3JJXdfoSTVemp/q1+gp1brQ8yT5m2wooooEFFFFABRRRQAVTf/WN9TVyqb/6xvqaAG0UUUAFFFFABRRRQAUUUUAFFFFABRRRQAUUUUAFFFFABRRRQAUUUUAFFFFABRRRQAUUUUAFFFFABRRRQAUUUUAFFFFABRRRQAUUUUAFFFFABRRRQAUUUUAFFFFABRRRQAUUUUAFFFFABRRRQAUUUUAFFFFABRRRQAUUUUAFFFFABRRRQAUUUUAFFFFABRRRQAUUUUAXE/wBWv0FOpqf6tfoKdQAUUUUAFFFFABRRRQAVTf8A1jfU1cqm/wDrG+poAbRRRQAUUUUAFFFFABRRRQAUUUUAFFFFABRRRQAUUUUAFFFFABRRRQAUUUUAFFFFABRRRQAUUUUAFFFFABRRRQAUUUUAFFFFABRRRQAUUUUAFFFFABRRRQAUUUUAFFFFABRRRQAUUUUAFFFFABRRRQAUUUUAFFFFABRRRQAUUUUAFFFFABRRRQAUUUUAFFFFABRRRQBcT/Vr9BTqan+rX6CnUAFFFFAH/9k=;" vertex="1" parent="1">
          <mxGeometry x="414" y="102.53999999999999" width="68.31" height="77.46" as="geometry" />
        </mxCell>
        <mxCell id="r_Dj4uReKLwVwEFs2foP-26" value="States(St)" style="text;html=1;align=center;verticalAlign=middle;resizable=0;points=[];autosize=1;strokeColor=none;fillColor=none;" vertex="1" parent="1">
          <mxGeometry x="494" y="50" width="80" height="30" as="geometry" />
        </mxCell>
        <mxCell id="r_Dj4uReKLwVwEFs2foP-27" style="edgeStyle=orthogonalEdgeStyle;rounded=0;orthogonalLoop=1;jettySize=auto;html=1;entryX=0.5;entryY=0;entryDx=0;entryDy=0;" edge="1" parent="1" source="r_Dj4uReKLwVwEFs2foP-29" target="r_Dj4uReKLwVwEFs2foP-25">
          <mxGeometry relative="1" as="geometry" />
        </mxCell>
        <mxCell id="r_Dj4uReKLwVwEFs2foP-28" style="edgeStyle=orthogonalEdgeStyle;rounded=0;orthogonalLoop=1;jettySize=auto;html=1;exitX=0.75;exitY=1;exitDx=0;exitDy=0;entryX=1;entryY=0.5;entryDx=0;entryDy=0;" edge="1" parent="1" source="r_Dj4uReKLwVwEFs2foP-29" target="r_Dj4uReKLwVwEFs2foP-33">
          <mxGeometry relative="1" as="geometry" />
        </mxCell>
        <mxCell id="r_Dj4uReKLwVwEFs2foP-29" value="Environment&lt;br&gt;" style="rounded=1;whiteSpace=wrap;html=1;fillColor=#e1d5e7;strokeColor=#9673a6;" vertex="1" parent="1">
          <mxGeometry x="604" y="50" width="120" height="60" as="geometry" />
        </mxCell>
        <mxCell id="r_Dj4uReKLwVwEFs2foP-30" value="Action(At)" style="text;html=1;align=center;verticalAlign=middle;resizable=0;points=[];autosize=1;strokeColor=none;fillColor=none;" vertex="1" parent="1">
          <mxGeometry x="554" y="120" width="80" height="30" as="geometry" />
        </mxCell>
        <mxCell id="r_Dj4uReKLwVwEFs2foP-31" value="Reward(Rt)" style="text;html=1;align=center;verticalAlign=middle;resizable=0;points=[];autosize=1;strokeColor=none;fillColor=none;" vertex="1" parent="1">
          <mxGeometry x="700" y="150" width="80" height="30" as="geometry" />
        </mxCell>
        <mxCell id="r_Dj4uReKLwVwEFs2foP-32" style="edgeStyle=orthogonalEdgeStyle;rounded=0;orthogonalLoop=1;jettySize=auto;html=1;exitX=0.5;exitY=0;exitDx=0;exitDy=0;entryX=0.25;entryY=1;entryDx=0;entryDy=0;" edge="1" parent="1" source="r_Dj4uReKLwVwEFs2foP-33" target="r_Dj4uReKLwVwEFs2foP-29">
          <mxGeometry relative="1" as="geometry" />
        </mxCell>
        <mxCell id="r_Dj4uReKLwVwEFs2foP-33" value="Linear" style="whiteSpace=wrap;html=1;aspect=fixed;fillColor=#dae8fc;strokeColor=#6c8ebf;" vertex="1" parent="1">
          <mxGeometry x="594" y="190" width="40" height="40" as="geometry" />
        </mxCell>
      </root>
    </mxGraphModel>
  </diagram>
</mxfile>
